%TF.GenerationSoftware,KiCad,Pcbnew,8.0.5*%
%TF.CreationDate,2024-10-29T06:52:38-03:00*%
%TF.ProjectId,WattSync,57617474-5379-46e6-932e-6b696361645f,rev?*%
%TF.SameCoordinates,Original*%
%TF.FileFunction,Copper,L2,Bot*%
%TF.FilePolarity,Positive*%
%FSLAX46Y46*%
G04 Gerber Fmt 4.6, Leading zero omitted, Abs format (unit mm)*
G04 Created by KiCad (PCBNEW 8.0.5) date 2024-10-29 06:52:38*
%MOMM*%
%LPD*%
G01*
G04 APERTURE LIST*
%TA.AperFunction,ComponentPad*%
%ADD10C,1.500000*%
%TD*%
%TA.AperFunction,ComponentPad*%
%ADD11R,1.600000X1.600000*%
%TD*%
%TA.AperFunction,ComponentPad*%
%ADD12C,1.600000*%
%TD*%
%TA.AperFunction,ComponentPad*%
%ADD13R,0.850000X0.850000*%
%TD*%
%TA.AperFunction,ComponentPad*%
%ADD14R,1.500000X1.050000*%
%TD*%
%TA.AperFunction,ComponentPad*%
%ADD15O,1.500000X1.050000*%
%TD*%
%TA.AperFunction,ComponentPad*%
%ADD16O,1.600000X1.600000*%
%TD*%
%TA.AperFunction,ComponentPad*%
%ADD17R,2.200000X2.200000*%
%TD*%
%TA.AperFunction,ComponentPad*%
%ADD18O,2.200000X2.200000*%
%TD*%
%TA.AperFunction,ComponentPad*%
%ADD19C,2.400000*%
%TD*%
%TA.AperFunction,ComponentPad*%
%ADD20O,2.400000X2.400000*%
%TD*%
%TA.AperFunction,HeatsinkPad*%
%ADD21C,0.600000*%
%TD*%
%TA.AperFunction,CastellatedPad*%
%ADD22C,3.000000*%
%TD*%
%TA.AperFunction,ComponentPad*%
%ADD23C,3.000000*%
%TD*%
%TA.AperFunction,CastellatedPad*%
%ADD24C,1.700000*%
%TD*%
%TA.AperFunction,ComponentPad*%
%ADD25C,1.440000*%
%TD*%
%TA.AperFunction,ComponentPad*%
%ADD26R,2.000000X2.000000*%
%TD*%
%TA.AperFunction,ComponentPad*%
%ADD27C,2.000000*%
%TD*%
%TA.AperFunction,ComponentPad*%
%ADD28R,1.700000X2.000000*%
%TD*%
%TA.AperFunction,ComponentPad*%
%ADD29O,1.700000X2.000000*%
%TD*%
%TA.AperFunction,ComponentPad*%
%ADD30C,8.000000*%
%TD*%
%TA.AperFunction,ComponentPad*%
%ADD31C,1.800000*%
%TD*%
%TA.AperFunction,CastellatedPad*%
%ADD32C,1.500000*%
%TD*%
%TA.AperFunction,ViaPad*%
%ADD33C,2.000000*%
%TD*%
%TA.AperFunction,ViaPad*%
%ADD34C,1.000000*%
%TD*%
%TA.AperFunction,ViaPad*%
%ADD35C,0.600000*%
%TD*%
%TA.AperFunction,Conductor*%
%ADD36C,1.000000*%
%TD*%
%TA.AperFunction,Conductor*%
%ADD37C,0.200000*%
%TD*%
G04 APERTURE END LIST*
D10*
%TO.P,Y1,1,1*%
%TO.N,Net-(U3-XTAL1{slash}PB6)*%
X83840000Y-52150000D03*
%TO.P,Y1,2,2*%
%TO.N,Net-(U3-XTAL2{slash}PB7)*%
X78960000Y-52150000D03*
%TD*%
D11*
%TO.P,C5,1*%
%TO.N,+3.3V*%
X134300000Y-105560000D03*
D12*
%TO.P,C5,2*%
%TO.N,GNDREF*%
X134300000Y-103060000D03*
%TD*%
D13*
%TO.P,RESET1,1,Pin_1*%
%TO.N,Net-(RESET1-Pin_1)*%
X105290000Y-56790000D03*
%TD*%
D14*
%TO.P,Q2,1,E*%
%TO.N,GNDREF*%
X75860000Y-97100000D03*
D15*
%TO.P,Q2,2,B*%
%TO.N,Net-(Q2-B)*%
X75860000Y-98370000D03*
%TO.P,Q2,3,C*%
%TO.N,Net-(D5-A)*%
X75860000Y-99640000D03*
%TD*%
D13*
%TO.P,17.1,1,Pin_1*%
%TO.N,Net-(17.1-Pin_1)*%
X72860000Y-67510000D03*
%TD*%
D12*
%TO.P,R6,1*%
%TO.N,Net-(Q1-B)*%
X117560000Y-75150000D03*
D16*
%TO.P,R6,2*%
%TO.N,Net-(U1-IO17)*%
X117560000Y-64990000D03*
%TD*%
D17*
%TO.P,D2,1,K*%
%TO.N,Net-(D2-K)*%
X134300000Y-91060000D03*
D18*
%TO.P,D2,2,A*%
%TO.N,GNDREF*%
X134300000Y-80900000D03*
%TD*%
D17*
%TO.P,D1,1,K*%
%TO.N,Net-(D1-K)*%
X118800000Y-91060000D03*
D18*
%TO.P,D1,2,A*%
%TO.N,GNDREF*%
X118800000Y-80900000D03*
%TD*%
D12*
%TO.P,R5,1*%
%TO.N,Net-(U1-EN)*%
X77720000Y-38560000D03*
D16*
%TO.P,R5,2*%
%TO.N,+3.3V*%
X87880000Y-38560000D03*
%TD*%
D13*
%TO.P,D-1,1,Pin_1*%
%TO.N,Net-(D-1-Pin_1)*%
X117650000Y-52680000D03*
%TD*%
D12*
%TO.P,R8,1*%
%TO.N,Net-(RESET1-Pin_1)*%
X69100000Y-66850000D03*
D16*
%TO.P,R8,2*%
%TO.N,+5V*%
X69100000Y-77010000D03*
%TD*%
D19*
%TO.P,R3,1*%
%TO.N,Net-(D4-K)*%
X130300000Y-75940000D03*
D20*
%TO.P,R3,2*%
%TO.N,Net-(D2-K)*%
X130300000Y-91180000D03*
%TD*%
D21*
%TO.P,U1,41,GND*%
%TO.N,GNDREF*%
X125500000Y-44260000D03*
X125500000Y-45660000D03*
X126200000Y-43560000D03*
X126200000Y-44960000D03*
X126200000Y-46360000D03*
X126900000Y-44260000D03*
X126900000Y-45660000D03*
X127600000Y-43560000D03*
X127600000Y-44960000D03*
X127600000Y-46360000D03*
X128300000Y-44260000D03*
X128300000Y-45660000D03*
%TD*%
D12*
%TO.P,R1,1*%
%TO.N,Net-(U1-IO47)*%
X88590000Y-53000000D03*
D16*
%TO.P,R1,2*%
%TO.N,Net-(U3-PD3)*%
X98750000Y-53000000D03*
%TD*%
D17*
%TO.P,D3,1,K*%
%TO.N,Net-(D3-K)*%
X123300000Y-73140000D03*
D18*
%TO.P,D3,2,A*%
%TO.N,Net-(D3-A)*%
X123300000Y-62980000D03*
%TD*%
D22*
%TO.P,K1,13*%
%TO.N,Net-(K1-Pad13)*%
X82360000Y-93830000D03*
D23*
%TO.P,K1,14*%
%TO.N,Net-(D4-A)*%
X100390000Y-102760000D03*
D22*
%TO.P,K1,15*%
%TO.N,N/C*%
X97300000Y-85510000D03*
D24*
%TO.P,K1,A1*%
%TO.N,+5V*%
X84710000Y-89120000D03*
%TO.P,K1,A2*%
%TO.N,Net-(D5-A)*%
X84710000Y-98990000D03*
%TD*%
D11*
%TO.P,U3,1,~{RESET}/PC6*%
%TO.N,Net-(RESET1-Pin_1)*%
X102130000Y-56800000D03*
D16*
%TO.P,U3,2,PD0*%
%TO.N,unconnected-(U3-PD0-Pad2)*%
X99590000Y-56800000D03*
%TO.P,U3,3,PD1*%
%TO.N,unconnected-(U3-PD1-Pad3)*%
X97050000Y-56800000D03*
%TO.P,U3,4,PD2*%
%TO.N,Net-(U3-PD2)*%
X94510000Y-56800000D03*
%TO.P,U3,5,PD3*%
%TO.N,Net-(U3-PD3)*%
X91970000Y-56800000D03*
%TO.P,U3,6,PD4*%
%TO.N,unconnected-(U3-PD4-Pad6)*%
X89430000Y-56800000D03*
%TO.P,U3,7,VCC*%
%TO.N,+5V*%
X86890000Y-56800000D03*
%TO.P,U3,8,GND*%
%TO.N,GNDREF*%
X84350000Y-56800000D03*
%TO.P,U3,9,XTAL1/PB6*%
%TO.N,Net-(U3-XTAL1{slash}PB6)*%
X81810000Y-56800000D03*
%TO.P,U3,10,XTAL2/PB7*%
%TO.N,Net-(U3-XTAL2{slash}PB7)*%
X79270000Y-56800000D03*
%TO.P,U3,11,PD5*%
%TO.N,unconnected-(U3-PD5-Pad11)*%
X76730000Y-56800000D03*
%TO.P,U3,12,PD6*%
%TO.N,unconnected-(U3-PD6-Pad12)*%
X74190000Y-56800000D03*
%TO.P,U3,13,PD7*%
%TO.N,unconnected-(U3-PD7-Pad13)*%
X71650000Y-56800000D03*
%TO.P,U3,14,PB0*%
%TO.N,unconnected-(U3-PB0-Pad14)*%
X69110000Y-56800000D03*
%TO.P,U3,15,PB1*%
%TO.N,unconnected-(U3-PB1-Pad15)*%
X69110000Y-64420000D03*
%TO.P,U3,16,PB2*%
%TO.N,unconnected-(U3-PB2-Pad16)*%
X71650000Y-64420000D03*
%TO.P,U3,17,PB3*%
%TO.N,Net-(17.1-Pin_1)*%
X74190000Y-64420000D03*
%TO.P,U3,18,PB4*%
%TO.N,Net-(18.1-Pin_1)*%
X76730000Y-64420000D03*
%TO.P,U3,19,PB5*%
%TO.N,Net-(19.1-Pin_1)*%
X79270000Y-64420000D03*
%TO.P,U3,20,AVCC*%
%TO.N,+5V*%
X81810000Y-64420000D03*
%TO.P,U3,21,AREF*%
%TO.N,unconnected-(U3-AREF-Pad21)*%
X84350000Y-64420000D03*
%TO.P,U3,22,GND*%
%TO.N,GNDREF*%
X86890000Y-64420000D03*
%TO.P,U3,23,PC0*%
%TO.N,Net-(U2-VIOUT)*%
X89430000Y-64420000D03*
%TO.P,U3,24,PC1*%
%TO.N,Net-(U1-IO48)*%
X91970000Y-64420000D03*
%TO.P,U3,25,PC2*%
%TO.N,Net-(D1-K)*%
X94510000Y-64420000D03*
%TO.P,U3,26,PC3*%
%TO.N,Net-(D2-K)*%
X97050000Y-64420000D03*
%TO.P,U3,27,PC4*%
%TO.N,unconnected-(U3-PC4-Pad27)*%
X99590000Y-64420000D03*
%TO.P,U3,28,PC5*%
%TO.N,Net-(U1-IO45)*%
X102130000Y-64420000D03*
%TD*%
D25*
%TO.P,RV3,1,1*%
%TO.N,Net-(D1-K)*%
X117220000Y-95560000D03*
%TO.P,RV3,2,2*%
%TO.N,GNDREF*%
X119760000Y-95560000D03*
%TO.P,RV3,3,3*%
%TO.N,unconnected-(RV3-Pad3)*%
X122300000Y-95560000D03*
%TD*%
D11*
%TO.P,C6,1*%
%TO.N,Net-(U1-EN)*%
X72300000Y-40060000D03*
D12*
%TO.P,C6,2*%
%TO.N,GNDREF*%
X72300000Y-42060000D03*
%TD*%
D14*
%TO.P,Q1,1,E*%
%TO.N,GNDREF*%
X112940000Y-80190000D03*
D15*
%TO.P,Q1,2,B*%
%TO.N,Net-(Q1-B)*%
X112940000Y-78920000D03*
%TO.P,Q1,3,C*%
%TO.N,Net-(BZ1--)*%
X112940000Y-77650000D03*
%TD*%
D12*
%TO.P,C2,1*%
%TO.N,Net-(U3-XTAL2{slash}PB7)*%
X74310000Y-53630000D03*
%TO.P,C2,2*%
%TO.N,GNDREF*%
X71810000Y-53630000D03*
%TD*%
%TO.P,C1,1*%
%TO.N,Net-(U3-XTAL1{slash}PB6)*%
X74310000Y-50980000D03*
%TO.P,C1,2*%
%TO.N,GNDREF*%
X71810000Y-50980000D03*
%TD*%
D26*
%TO.P,BZ1,1,+*%
%TO.N,+5V*%
X102039216Y-72960000D03*
D27*
%TO.P,BZ1,2,-*%
%TO.N,Net-(BZ1--)*%
X107039216Y-72960000D03*
%TD*%
D12*
%TO.P,R2,1*%
%TO.N,GNDREF*%
X75130000Y-47560000D03*
D16*
%TO.P,R2,2*%
%TO.N,Net-(U1-IO47)*%
X85290000Y-47560000D03*
%TD*%
D12*
%TO.P,R7,1*%
%TO.N,Net-(Q2-B)*%
X95900000Y-78240000D03*
D16*
%TO.P,R7,2*%
%TO.N,Net-(U3-PD2)*%
X95900000Y-68080000D03*
%TD*%
D17*
%TO.P,D4,1,K*%
%TO.N,Net-(D4-K)*%
X129800000Y-73140000D03*
D18*
%TO.P,D4,2,A*%
%TO.N,Net-(D4-A)*%
X129800000Y-62980000D03*
%TD*%
D11*
%TO.P,C4,1*%
%TO.N,+5V*%
X115147349Y-103560000D03*
D12*
%TO.P,C4,2*%
%TO.N,GNDREF*%
X117647349Y-103560000D03*
%TD*%
D13*
%TO.P,19.1,1,Pin_1*%
%TO.N,Net-(19.1-Pin_1)*%
X78260000Y-67430000D03*
%TD*%
D19*
%TO.P,R4,1*%
%TO.N,Net-(D3-K)*%
X122800000Y-76060000D03*
D20*
%TO.P,R4,2*%
%TO.N,Net-(D1-K)*%
X122800000Y-91300000D03*
%TD*%
D28*
%TO.P,PS1,1,AC/L*%
%TO.N,Net-(D4-A)*%
X102042500Y-118602500D03*
D29*
%TO.P,PS1,2,AC/N*%
%TO.N,Net-(D3-A)*%
X102042500Y-124602500D03*
%TO.P,PS1,3,-Vout*%
%TO.N,GNDREF*%
X135642500Y-112602500D03*
%TO.P,PS1,4,+Vout*%
%TO.N,+5V*%
X135642500Y-130602500D03*
%TD*%
D17*
%TO.P,D5,1,K*%
%TO.N,+5V*%
X76610000Y-83910000D03*
D18*
%TO.P,D5,2,A*%
%TO.N,Net-(D5-A)*%
X76610000Y-94070000D03*
%TD*%
D13*
%TO.P,18.1,1,Pin_1*%
%TO.N,Net-(18.1-Pin_1)*%
X75650000Y-67470000D03*
%TD*%
D25*
%TO.P,RV2,1,1*%
%TO.N,Net-(D2-K)*%
X130760000Y-95560000D03*
%TO.P,RV2,2,2*%
%TO.N,GNDREF*%
X133300000Y-95560000D03*
%TO.P,RV2,3,3*%
%TO.N,unconnected-(RV2-Pad3)*%
X135840000Y-95560000D03*
%TD*%
D30*
%TO.P,J1,1,AC_P*%
%TO.N,Net-(J1-AC_P)*%
X71800000Y-129560000D03*
%TO.P,J1,2,AC_N*%
%TO.N,Net-(D3-A)*%
X71800000Y-119560000D03*
%TO.P,J1,3,EARTH*%
%TO.N,Net-(J1-EARTH)*%
X71800000Y-109560000D03*
%TD*%
D11*
%TO.P,C3,1*%
%TO.N,GNDREF*%
X83665113Y-68410000D03*
D12*
%TO.P,C3,2*%
%TO.N,Net-(U2-FILTER)*%
X81165113Y-68410000D03*
%TD*%
D31*
%TO.P,RV1,1*%
%TO.N,Net-(D4-A)*%
X92800000Y-130060000D03*
%TO.P,RV1,2*%
%TO.N,Net-(D3-A)*%
X94200000Y-122560000D03*
%TD*%
D23*
%TO.P,F1,1*%
%TO.N,Net-(D4-A)*%
X83300000Y-109560000D03*
%TO.P,F1,2*%
%TO.N,Net-(J1-AC_P)*%
X83300000Y-132060000D03*
%TD*%
D13*
%TO.P,D+1,1,Pin_1*%
%TO.N,Net-(D+1-Pin_1)*%
X118330000Y-55310000D03*
%TD*%
D32*
%TO.P,U5,1,VCC*%
%TO.N,+3.3V*%
X108160000Y-42850000D03*
%TO.P,U5,2,GND*%
%TO.N,GNDREF*%
X105620000Y-42850000D03*
%TO.P,U5,3,CS*%
%TO.N,Net-(U1-IO10)*%
X103080000Y-42850000D03*
%TO.P,U5,4,RESET*%
%TO.N,Net-(U1-IO5)*%
X100540000Y-42850000D03*
%TO.P,U5,5,A0*%
%TO.N,Net-(U1-IO6)*%
X98000000Y-42850000D03*
%TO.P,U5,6,SDA*%
%TO.N,Net-(U1-IO11)*%
X95460000Y-42850000D03*
%TO.P,U5,7,SCK*%
%TO.N,Net-(U1-IO12)*%
X92920000Y-42850000D03*
%TO.P,U5,8,LED*%
%TO.N,+3.3V*%
X90380000Y-42850000D03*
%TD*%
D33*
%TO.N,+3.3V*%
X114500000Y-65140000D03*
D34*
X112730000Y-38450000D03*
D35*
%TO.N,Net-(U1-IO45)*%
X110200000Y-60570000D03*
D33*
%TO.N,GNDREF*%
X111930000Y-62490000D03*
D34*
X111020000Y-37240000D03*
D35*
%TO.N,Net-(U1-IO48)*%
X98960000Y-59210000D03*
%TO.N,Net-(U1-IO17)*%
X116300000Y-55060000D03*
%TD*%
D36*
%TO.N,+3.3V*%
X112230000Y-38450000D02*
X108160000Y-42520000D01*
X112730000Y-38450000D02*
X112230000Y-38450000D01*
X114620000Y-64570000D02*
X114620000Y-49310000D01*
D37*
X87880000Y-40350000D02*
X87880000Y-38560000D01*
X90380000Y-42850000D02*
X87880000Y-40350000D01*
D36*
X108160000Y-42520000D02*
X108160000Y-42850000D01*
X114620000Y-49310000D02*
X108160000Y-42850000D01*
D37*
%TO.N,Net-(U1-IO45)*%
X110200000Y-60570000D02*
X106350000Y-64420000D01*
X106350000Y-64420000D02*
X102130000Y-64420000D01*
%TO.N,GNDREF*%
X86890000Y-64715686D02*
X86890000Y-64420000D01*
X93420000Y-94440000D02*
X93420000Y-71245686D01*
X83665113Y-67644887D02*
X83665113Y-68410000D01*
X90300000Y-97560000D02*
X93420000Y-94440000D01*
X78800000Y-97560000D02*
X78830000Y-97530000D01*
X85800000Y-59560000D02*
X85800000Y-58250000D01*
X85800000Y-58250000D02*
X84350000Y-56800000D01*
X89300000Y-97560000D02*
X90300000Y-97560000D01*
X78830000Y-97530000D02*
X89270000Y-97530000D01*
X86890000Y-60650000D02*
X85800000Y-59560000D01*
X86890000Y-64420000D02*
X86890000Y-60650000D01*
X76660000Y-97290000D02*
X78530000Y-97290000D01*
X93420000Y-71245686D02*
X86890000Y-64715686D01*
D36*
X111930000Y-49160000D02*
X105620000Y-42850000D01*
D37*
X86890000Y-64420000D02*
X83665113Y-67644887D01*
D36*
X111930000Y-62490000D02*
X111930000Y-49160000D01*
X111020000Y-37240000D02*
X110310000Y-37240000D01*
D37*
X78530000Y-97290000D02*
X78800000Y-97560000D01*
D36*
X105620000Y-41930000D02*
X105620000Y-42850000D01*
D37*
X89270000Y-97530000D02*
X89300000Y-97560000D01*
D36*
X110310000Y-37240000D02*
X105620000Y-41930000D01*
D37*
%TO.N,Net-(D1-K)*%
X118180000Y-72930000D02*
X119310000Y-74060000D01*
X94510000Y-64420000D02*
X100600000Y-70510000D01*
X118800000Y-91060000D02*
X118800000Y-91560000D01*
X119310000Y-77600000D02*
X122800000Y-81090000D01*
X119040000Y-91300000D02*
X118800000Y-91060000D01*
X100600000Y-70510000D02*
X112120000Y-70510000D01*
X114540000Y-72930000D02*
X118180000Y-72930000D01*
X112120000Y-70510000D02*
X114540000Y-72930000D01*
X119310000Y-74060000D02*
X119310000Y-77600000D01*
X122800000Y-81090000D02*
X122800000Y-91300000D01*
%TO.N,Net-(D2-K)*%
X118640000Y-72150000D02*
X120280000Y-73790000D01*
X123990000Y-84870000D02*
X130300000Y-91180000D01*
X116040000Y-72150000D02*
X118640000Y-72150000D01*
X113380000Y-69490000D02*
X116040000Y-72150000D01*
X97050000Y-64420000D02*
X102120000Y-69490000D01*
X102120000Y-69490000D02*
X113380000Y-69490000D01*
X123880000Y-83790000D02*
X123990000Y-83900000D01*
X120280000Y-73790000D02*
X120280000Y-77330000D01*
X123880000Y-80930000D02*
X123880000Y-83790000D01*
X123990000Y-83900000D02*
X123990000Y-84870000D01*
X120280000Y-77330000D02*
X123880000Y-80930000D01*
%TO.N,Net-(Q2-B)*%
X88560000Y-100300000D02*
X93900000Y-94960000D01*
X76050000Y-98560000D02*
X80920000Y-98560000D01*
X82660000Y-100300000D02*
X88560000Y-100300000D01*
X80920000Y-98560000D02*
X82660000Y-100300000D01*
X75860000Y-98370000D02*
X76050000Y-98560000D01*
X93900000Y-80240000D02*
X95900000Y-78240000D01*
X93900000Y-94960000D02*
X93900000Y-80240000D01*
%TO.N,Net-(U1-IO48)*%
X97180000Y-59210000D02*
X91970000Y-64420000D01*
X98960000Y-59210000D02*
X97180000Y-59210000D01*
%TO.N,Net-(RESET1-Pin_1)*%
X102130000Y-56800000D02*
X100550000Y-55220000D01*
X100550000Y-55220000D02*
X71200000Y-55220000D01*
X70320000Y-65630000D02*
X69100000Y-66850000D01*
X71200000Y-55220000D02*
X70320000Y-56100000D01*
X70320000Y-56100000D02*
X70320000Y-65630000D01*
%TO.N,Net-(U1-IO17)*%
X117560000Y-56320000D02*
X117560000Y-64990000D01*
X116300000Y-55060000D02*
X117560000Y-56320000D01*
%TO.N,Net-(U3-PD2)*%
X90800000Y-62060000D02*
X90800000Y-66060000D01*
X90800000Y-66060000D02*
X92820000Y-68080000D01*
X94510000Y-56800000D02*
X94510000Y-58350000D01*
X94510000Y-58350000D02*
X90800000Y-62060000D01*
X92820000Y-68080000D02*
X95900000Y-68080000D01*
%TD*%
%TA.AperFunction,Conductor*%
%TO.N,Net-(U1-IO17)*%
G36*
X116575779Y-54949467D02*
G01*
X116581877Y-54955329D01*
X116791523Y-55406132D01*
X116791904Y-55415079D01*
X116789187Y-55419339D01*
X116659339Y-55549187D01*
X116651066Y-55552614D01*
X116646132Y-55551523D01*
X116352736Y-55415079D01*
X116195328Y-55341876D01*
X116189273Y-55335281D01*
X116189439Y-55326825D01*
X116297436Y-55063814D01*
X116303746Y-55057464D01*
X116566825Y-54949440D01*
X116575779Y-54949467D01*
G37*
%TD.AperFunction*%
%TD*%
%TA.AperFunction,Conductor*%
%TO.N,Net-(U1-IO48)*%
G36*
X98843641Y-58937050D02*
G01*
X98849503Y-58943148D01*
X98959115Y-59205489D01*
X98959142Y-59214444D01*
X98959115Y-59214511D01*
X98849503Y-59476851D01*
X98843151Y-59483163D01*
X98834694Y-59483329D01*
X98700947Y-59434493D01*
X98367687Y-59312806D01*
X98361091Y-59306750D01*
X98360000Y-59301816D01*
X98360000Y-59118183D01*
X98363427Y-59109910D01*
X98367687Y-59107193D01*
X98834697Y-58936669D01*
X98843641Y-58937050D01*
G37*
%TD.AperFunction*%
%TD*%
%TA.AperFunction,Conductor*%
%TO.N,GNDREF*%
G36*
X112429244Y-60493427D02*
G01*
X112432289Y-60498734D01*
X112851295Y-62097456D01*
X112850077Y-62106327D01*
X112844464Y-62111227D01*
X111934487Y-62489136D01*
X111925533Y-62489145D01*
X111925513Y-62489136D01*
X111015535Y-62111227D01*
X111009208Y-62104889D01*
X111008704Y-62097456D01*
X111427711Y-60498734D01*
X111433124Y-60491600D01*
X111439029Y-60490000D01*
X112420971Y-60490000D01*
X112429244Y-60493427D01*
G37*
%TD.AperFunction*%
%TD*%
%TA.AperFunction,Conductor*%
%TO.N,Net-(U1-IO45)*%
G36*
X109933174Y-60459439D02*
G01*
X110096804Y-60526629D01*
X110196184Y-60567436D01*
X110202536Y-60573748D01*
X110202563Y-60573815D01*
X110310559Y-60836824D01*
X110310532Y-60845779D01*
X110304670Y-60851877D01*
X109853867Y-61061523D01*
X109844920Y-61061904D01*
X109840660Y-61059187D01*
X109710812Y-60929339D01*
X109707385Y-60921066D01*
X109708474Y-60916136D01*
X109918124Y-60465327D01*
X109924718Y-60459273D01*
X109933174Y-60459439D01*
G37*
%TD.AperFunction*%
%TD*%
%TA.AperFunction,Conductor*%
%TO.N,+3.3V*%
G36*
X115118608Y-63167296D02*
G01*
X115121825Y-63173360D01*
X115497328Y-65126105D01*
X115495525Y-65134876D01*
X115488047Y-65139804D01*
X115485850Y-65140014D01*
X114502338Y-65140997D01*
X114497839Y-65140102D01*
X113586248Y-64761523D01*
X113579921Y-64755185D01*
X113579662Y-64746939D01*
X114117296Y-63171789D01*
X114123212Y-63165067D01*
X114128369Y-63163869D01*
X115110335Y-63163869D01*
X115118608Y-63167296D01*
G37*
%TD.AperFunction*%
%TD*%
M02*
