%TF.GenerationSoftware,KiCad,Pcbnew,8.0.5*%
%TF.CreationDate,2024-10-29T06:52:38-03:00*%
%TF.ProjectId,WattSync,57617474-5379-46e6-932e-6b696361645f,rev?*%
%TF.SameCoordinates,Original*%
%TF.FileFunction,Legend,Top*%
%TF.FilePolarity,Positive*%
%FSLAX46Y46*%
G04 Gerber Fmt 4.6, Leading zero omitted, Abs format (unit mm)*
G04 Created by KiCad (PCBNEW 8.0.5) date 2024-10-29 06:52:38*
%MOMM*%
%LPD*%
G01*
G04 APERTURE LIST*
%ADD10C,0.300000*%
%ADD11C,0.200000*%
%ADD12C,0.150000*%
%ADD13C,0.100000*%
%ADD14C,0.120000*%
G04 APERTURE END LIST*
D10*
X76264510Y-120360828D02*
X76264510Y-118860828D01*
X76264510Y-118860828D02*
X77121653Y-120360828D01*
X77121653Y-120360828D02*
X77121653Y-118860828D01*
D11*
X140042724Y-62786816D02*
X140042724Y-63358244D01*
X139042724Y-63072530D02*
X140042724Y-63072530D01*
X139042724Y-63691578D02*
X139709391Y-63691578D01*
X139518915Y-63691578D02*
X139614153Y-63739197D01*
X139614153Y-63739197D02*
X139661772Y-63786816D01*
X139661772Y-63786816D02*
X139709391Y-63882054D01*
X139709391Y-63882054D02*
X139709391Y-63977292D01*
X139042724Y-64739197D02*
X139566534Y-64739197D01*
X139566534Y-64739197D02*
X139661772Y-64691578D01*
X139661772Y-64691578D02*
X139709391Y-64596340D01*
X139709391Y-64596340D02*
X139709391Y-64405864D01*
X139709391Y-64405864D02*
X139661772Y-64310626D01*
X139090344Y-64739197D02*
X139042724Y-64643959D01*
X139042724Y-64643959D02*
X139042724Y-64405864D01*
X139042724Y-64405864D02*
X139090344Y-64310626D01*
X139090344Y-64310626D02*
X139185582Y-64263007D01*
X139185582Y-64263007D02*
X139280820Y-64263007D01*
X139280820Y-64263007D02*
X139376058Y-64310626D01*
X139376058Y-64310626D02*
X139423677Y-64405864D01*
X139423677Y-64405864D02*
X139423677Y-64643959D01*
X139423677Y-64643959D02*
X139471296Y-64739197D01*
X139042724Y-65215388D02*
X140042724Y-65215388D01*
X139661772Y-65215388D02*
X139709391Y-65310626D01*
X139709391Y-65310626D02*
X139709391Y-65501102D01*
X139709391Y-65501102D02*
X139661772Y-65596340D01*
X139661772Y-65596340D02*
X139614153Y-65643959D01*
X139614153Y-65643959D02*
X139518915Y-65691578D01*
X139518915Y-65691578D02*
X139233201Y-65691578D01*
X139233201Y-65691578D02*
X139137963Y-65643959D01*
X139137963Y-65643959D02*
X139090344Y-65596340D01*
X139090344Y-65596340D02*
X139042724Y-65501102D01*
X139042724Y-65501102D02*
X139042724Y-65310626D01*
X139042724Y-65310626D02*
X139090344Y-65215388D01*
X139042724Y-66548721D02*
X139566534Y-66548721D01*
X139566534Y-66548721D02*
X139661772Y-66501102D01*
X139661772Y-66501102D02*
X139709391Y-66405864D01*
X139709391Y-66405864D02*
X139709391Y-66215388D01*
X139709391Y-66215388D02*
X139661772Y-66120150D01*
X139090344Y-66548721D02*
X139042724Y-66453483D01*
X139042724Y-66453483D02*
X139042724Y-66215388D01*
X139042724Y-66215388D02*
X139090344Y-66120150D01*
X139090344Y-66120150D02*
X139185582Y-66072531D01*
X139185582Y-66072531D02*
X139280820Y-66072531D01*
X139280820Y-66072531D02*
X139376058Y-66120150D01*
X139376058Y-66120150D02*
X139423677Y-66215388D01*
X139423677Y-66215388D02*
X139423677Y-66453483D01*
X139423677Y-66453483D02*
X139471296Y-66548721D01*
X139042724Y-67167769D02*
X139090344Y-67072531D01*
X139090344Y-67072531D02*
X139185582Y-67024912D01*
X139185582Y-67024912D02*
X140042724Y-67024912D01*
X139042724Y-67548722D02*
X140042724Y-67548722D01*
X139042724Y-67977293D02*
X139566534Y-67977293D01*
X139566534Y-67977293D02*
X139661772Y-67929674D01*
X139661772Y-67929674D02*
X139709391Y-67834436D01*
X139709391Y-67834436D02*
X139709391Y-67691579D01*
X139709391Y-67691579D02*
X139661772Y-67596341D01*
X139661772Y-67596341D02*
X139614153Y-67548722D01*
X139042724Y-68596341D02*
X139090344Y-68501103D01*
X139090344Y-68501103D02*
X139137963Y-68453484D01*
X139137963Y-68453484D02*
X139233201Y-68405865D01*
X139233201Y-68405865D02*
X139518915Y-68405865D01*
X139518915Y-68405865D02*
X139614153Y-68453484D01*
X139614153Y-68453484D02*
X139661772Y-68501103D01*
X139661772Y-68501103D02*
X139709391Y-68596341D01*
X139709391Y-68596341D02*
X139709391Y-68739198D01*
X139709391Y-68739198D02*
X139661772Y-68834436D01*
X139661772Y-68834436D02*
X139614153Y-68882055D01*
X139614153Y-68882055D02*
X139518915Y-68929674D01*
X139518915Y-68929674D02*
X139233201Y-68929674D01*
X139233201Y-68929674D02*
X139137963Y-68882055D01*
X139137963Y-68882055D02*
X139090344Y-68834436D01*
X139090344Y-68834436D02*
X139042724Y-68739198D01*
X139042724Y-68739198D02*
X139042724Y-68596341D01*
X139042724Y-70548722D02*
X140042724Y-70548722D01*
X139090344Y-70548722D02*
X139042724Y-70453484D01*
X139042724Y-70453484D02*
X139042724Y-70263008D01*
X139042724Y-70263008D02*
X139090344Y-70167770D01*
X139090344Y-70167770D02*
X139137963Y-70120151D01*
X139137963Y-70120151D02*
X139233201Y-70072532D01*
X139233201Y-70072532D02*
X139518915Y-70072532D01*
X139518915Y-70072532D02*
X139614153Y-70120151D01*
X139614153Y-70120151D02*
X139661772Y-70167770D01*
X139661772Y-70167770D02*
X139709391Y-70263008D01*
X139709391Y-70263008D02*
X139709391Y-70453484D01*
X139709391Y-70453484D02*
X139661772Y-70548722D01*
X139090344Y-71405865D02*
X139042724Y-71310627D01*
X139042724Y-71310627D02*
X139042724Y-71120151D01*
X139042724Y-71120151D02*
X139090344Y-71024913D01*
X139090344Y-71024913D02*
X139185582Y-70977294D01*
X139185582Y-70977294D02*
X139566534Y-70977294D01*
X139566534Y-70977294D02*
X139661772Y-71024913D01*
X139661772Y-71024913D02*
X139709391Y-71120151D01*
X139709391Y-71120151D02*
X139709391Y-71310627D01*
X139709391Y-71310627D02*
X139661772Y-71405865D01*
X139661772Y-71405865D02*
X139566534Y-71453484D01*
X139566534Y-71453484D02*
X139471296Y-71453484D01*
X139471296Y-71453484D02*
X139376058Y-70977294D01*
X139137963Y-73215389D02*
X139090344Y-73167770D01*
X139090344Y-73167770D02*
X139042724Y-73024913D01*
X139042724Y-73024913D02*
X139042724Y-72929675D01*
X139042724Y-72929675D02*
X139090344Y-72786818D01*
X139090344Y-72786818D02*
X139185582Y-72691580D01*
X139185582Y-72691580D02*
X139280820Y-72643961D01*
X139280820Y-72643961D02*
X139471296Y-72596342D01*
X139471296Y-72596342D02*
X139614153Y-72596342D01*
X139614153Y-72596342D02*
X139804629Y-72643961D01*
X139804629Y-72643961D02*
X139899867Y-72691580D01*
X139899867Y-72691580D02*
X139995105Y-72786818D01*
X139995105Y-72786818D02*
X140042724Y-72929675D01*
X140042724Y-72929675D02*
X140042724Y-73024913D01*
X140042724Y-73024913D02*
X139995105Y-73167770D01*
X139995105Y-73167770D02*
X139947486Y-73215389D01*
X139042724Y-73786818D02*
X139090344Y-73691580D01*
X139090344Y-73691580D02*
X139137963Y-73643961D01*
X139137963Y-73643961D02*
X139233201Y-73596342D01*
X139233201Y-73596342D02*
X139518915Y-73596342D01*
X139518915Y-73596342D02*
X139614153Y-73643961D01*
X139614153Y-73643961D02*
X139661772Y-73691580D01*
X139661772Y-73691580D02*
X139709391Y-73786818D01*
X139709391Y-73786818D02*
X139709391Y-73929675D01*
X139709391Y-73929675D02*
X139661772Y-74024913D01*
X139661772Y-74024913D02*
X139614153Y-74072532D01*
X139614153Y-74072532D02*
X139518915Y-74120151D01*
X139518915Y-74120151D02*
X139233201Y-74120151D01*
X139233201Y-74120151D02*
X139137963Y-74072532D01*
X139137963Y-74072532D02*
X139090344Y-74024913D01*
X139090344Y-74024913D02*
X139042724Y-73929675D01*
X139042724Y-73929675D02*
X139042724Y-73786818D01*
X139709391Y-74548723D02*
X139042724Y-74548723D01*
X139614153Y-74548723D02*
X139661772Y-74596342D01*
X139661772Y-74596342D02*
X139709391Y-74691580D01*
X139709391Y-74691580D02*
X139709391Y-74834437D01*
X139709391Y-74834437D02*
X139661772Y-74929675D01*
X139661772Y-74929675D02*
X139566534Y-74977294D01*
X139566534Y-74977294D02*
X139042724Y-74977294D01*
X139090344Y-75882056D02*
X139042724Y-75786818D01*
X139042724Y-75786818D02*
X139042724Y-75596342D01*
X139042724Y-75596342D02*
X139090344Y-75501104D01*
X139090344Y-75501104D02*
X139137963Y-75453485D01*
X139137963Y-75453485D02*
X139233201Y-75405866D01*
X139233201Y-75405866D02*
X139518915Y-75405866D01*
X139518915Y-75405866D02*
X139614153Y-75453485D01*
X139614153Y-75453485D02*
X139661772Y-75501104D01*
X139661772Y-75501104D02*
X139709391Y-75596342D01*
X139709391Y-75596342D02*
X139709391Y-75786818D01*
X139709391Y-75786818D02*
X139661772Y-75882056D01*
X139042724Y-76453485D02*
X139090344Y-76358247D01*
X139090344Y-76358247D02*
X139185582Y-76310628D01*
X139185582Y-76310628D02*
X140042724Y-76310628D01*
X139709391Y-77263009D02*
X139042724Y-77263009D01*
X139709391Y-76834438D02*
X139185582Y-76834438D01*
X139185582Y-76834438D02*
X139090344Y-76882057D01*
X139090344Y-76882057D02*
X139042724Y-76977295D01*
X139042724Y-76977295D02*
X139042724Y-77120152D01*
X139042724Y-77120152D02*
X139090344Y-77215390D01*
X139090344Y-77215390D02*
X139137963Y-77263009D01*
X139090344Y-77691581D02*
X139042724Y-77786819D01*
X139042724Y-77786819D02*
X139042724Y-77977295D01*
X139042724Y-77977295D02*
X139090344Y-78072533D01*
X139090344Y-78072533D02*
X139185582Y-78120152D01*
X139185582Y-78120152D02*
X139233201Y-78120152D01*
X139233201Y-78120152D02*
X139328439Y-78072533D01*
X139328439Y-78072533D02*
X139376058Y-77977295D01*
X139376058Y-77977295D02*
X139376058Y-77834438D01*
X139376058Y-77834438D02*
X139423677Y-77739200D01*
X139423677Y-77739200D02*
X139518915Y-77691581D01*
X139518915Y-77691581D02*
X139566534Y-77691581D01*
X139566534Y-77691581D02*
X139661772Y-77739200D01*
X139661772Y-77739200D02*
X139709391Y-77834438D01*
X139709391Y-77834438D02*
X139709391Y-77977295D01*
X139709391Y-77977295D02*
X139661772Y-78072533D01*
X139042724Y-78977295D02*
X139566534Y-78977295D01*
X139566534Y-78977295D02*
X139661772Y-78929676D01*
X139661772Y-78929676D02*
X139709391Y-78834438D01*
X139709391Y-78834438D02*
X139709391Y-78643962D01*
X139709391Y-78643962D02*
X139661772Y-78548724D01*
X139090344Y-78977295D02*
X139042724Y-78882057D01*
X139042724Y-78882057D02*
X139042724Y-78643962D01*
X139042724Y-78643962D02*
X139090344Y-78548724D01*
X139090344Y-78548724D02*
X139185582Y-78501105D01*
X139185582Y-78501105D02*
X139280820Y-78501105D01*
X139280820Y-78501105D02*
X139376058Y-78548724D01*
X139376058Y-78548724D02*
X139423677Y-78643962D01*
X139423677Y-78643962D02*
X139423677Y-78882057D01*
X139423677Y-78882057D02*
X139471296Y-78977295D01*
X139947486Y-78501105D02*
X139995105Y-78548724D01*
X139995105Y-78548724D02*
X140042724Y-78643962D01*
X140042724Y-78643962D02*
X139947486Y-78834438D01*
X139947486Y-78834438D02*
X139995105Y-78929676D01*
X139995105Y-78929676D02*
X140042724Y-78977295D01*
X139042724Y-79596343D02*
X139090344Y-79501105D01*
X139090344Y-79501105D02*
X139137963Y-79453486D01*
X139137963Y-79453486D02*
X139233201Y-79405867D01*
X139233201Y-79405867D02*
X139518915Y-79405867D01*
X139518915Y-79405867D02*
X139614153Y-79453486D01*
X139614153Y-79453486D02*
X139661772Y-79501105D01*
X139661772Y-79501105D02*
X139709391Y-79596343D01*
X139709391Y-79596343D02*
X139709391Y-79739200D01*
X139709391Y-79739200D02*
X139661772Y-79834438D01*
X139661772Y-79834438D02*
X139614153Y-79882057D01*
X139614153Y-79882057D02*
X139518915Y-79929676D01*
X139518915Y-79929676D02*
X139233201Y-79929676D01*
X139233201Y-79929676D02*
X139137963Y-79882057D01*
X139137963Y-79882057D02*
X139090344Y-79834438D01*
X139090344Y-79834438D02*
X139042724Y-79739200D01*
X139042724Y-79739200D02*
X139042724Y-79596343D01*
X139042724Y-81548724D02*
X140042724Y-81548724D01*
X139090344Y-81548724D02*
X139042724Y-81453486D01*
X139042724Y-81453486D02*
X139042724Y-81263010D01*
X139042724Y-81263010D02*
X139090344Y-81167772D01*
X139090344Y-81167772D02*
X139137963Y-81120153D01*
X139137963Y-81120153D02*
X139233201Y-81072534D01*
X139233201Y-81072534D02*
X139518915Y-81072534D01*
X139518915Y-81072534D02*
X139614153Y-81120153D01*
X139614153Y-81120153D02*
X139661772Y-81167772D01*
X139661772Y-81167772D02*
X139709391Y-81263010D01*
X139709391Y-81263010D02*
X139709391Y-81453486D01*
X139709391Y-81453486D02*
X139661772Y-81548724D01*
X139090344Y-82405867D02*
X139042724Y-82310629D01*
X139042724Y-82310629D02*
X139042724Y-82120153D01*
X139042724Y-82120153D02*
X139090344Y-82024915D01*
X139090344Y-82024915D02*
X139185582Y-81977296D01*
X139185582Y-81977296D02*
X139566534Y-81977296D01*
X139566534Y-81977296D02*
X139661772Y-82024915D01*
X139661772Y-82024915D02*
X139709391Y-82120153D01*
X139709391Y-82120153D02*
X139709391Y-82310629D01*
X139709391Y-82310629D02*
X139661772Y-82405867D01*
X139661772Y-82405867D02*
X139566534Y-82453486D01*
X139566534Y-82453486D02*
X139471296Y-82453486D01*
X139471296Y-82453486D02*
X139376058Y-81977296D01*
X139137963Y-84215391D02*
X139090344Y-84167772D01*
X139090344Y-84167772D02*
X139042724Y-84024915D01*
X139042724Y-84024915D02*
X139042724Y-83929677D01*
X139042724Y-83929677D02*
X139090344Y-83786820D01*
X139090344Y-83786820D02*
X139185582Y-83691582D01*
X139185582Y-83691582D02*
X139280820Y-83643963D01*
X139280820Y-83643963D02*
X139471296Y-83596344D01*
X139471296Y-83596344D02*
X139614153Y-83596344D01*
X139614153Y-83596344D02*
X139804629Y-83643963D01*
X139804629Y-83643963D02*
X139899867Y-83691582D01*
X139899867Y-83691582D02*
X139995105Y-83786820D01*
X139995105Y-83786820D02*
X140042724Y-83929677D01*
X140042724Y-83929677D02*
X140042724Y-84024915D01*
X140042724Y-84024915D02*
X139995105Y-84167772D01*
X139995105Y-84167772D02*
X139947486Y-84215391D01*
X139709391Y-85072534D02*
X139042724Y-85072534D01*
X139709391Y-84643963D02*
X139185582Y-84643963D01*
X139185582Y-84643963D02*
X139090344Y-84691582D01*
X139090344Y-84691582D02*
X139042724Y-84786820D01*
X139042724Y-84786820D02*
X139042724Y-84929677D01*
X139042724Y-84929677D02*
X139090344Y-85024915D01*
X139090344Y-85024915D02*
X139137963Y-85072534D01*
X139042724Y-85548725D02*
X139709391Y-85548725D01*
X139518915Y-85548725D02*
X139614153Y-85596344D01*
X139614153Y-85596344D02*
X139661772Y-85643963D01*
X139661772Y-85643963D02*
X139709391Y-85739201D01*
X139709391Y-85739201D02*
X139709391Y-85834439D01*
X139090344Y-86120154D02*
X139042724Y-86215392D01*
X139042724Y-86215392D02*
X139042724Y-86405868D01*
X139042724Y-86405868D02*
X139090344Y-86501106D01*
X139090344Y-86501106D02*
X139185582Y-86548725D01*
X139185582Y-86548725D02*
X139233201Y-86548725D01*
X139233201Y-86548725D02*
X139328439Y-86501106D01*
X139328439Y-86501106D02*
X139376058Y-86405868D01*
X139376058Y-86405868D02*
X139376058Y-86263011D01*
X139376058Y-86263011D02*
X139423677Y-86167773D01*
X139423677Y-86167773D02*
X139518915Y-86120154D01*
X139518915Y-86120154D02*
X139566534Y-86120154D01*
X139566534Y-86120154D02*
X139661772Y-86167773D01*
X139661772Y-86167773D02*
X139709391Y-86263011D01*
X139709391Y-86263011D02*
X139709391Y-86405868D01*
X139709391Y-86405868D02*
X139661772Y-86501106D01*
X139042724Y-87120154D02*
X139090344Y-87024916D01*
X139090344Y-87024916D02*
X139137963Y-86977297D01*
X139137963Y-86977297D02*
X139233201Y-86929678D01*
X139233201Y-86929678D02*
X139518915Y-86929678D01*
X139518915Y-86929678D02*
X139614153Y-86977297D01*
X139614153Y-86977297D02*
X139661772Y-87024916D01*
X139661772Y-87024916D02*
X139709391Y-87120154D01*
X139709391Y-87120154D02*
X139709391Y-87263011D01*
X139709391Y-87263011D02*
X139661772Y-87358249D01*
X139661772Y-87358249D02*
X139614153Y-87405868D01*
X139614153Y-87405868D02*
X139518915Y-87453487D01*
X139518915Y-87453487D02*
X139233201Y-87453487D01*
X139233201Y-87453487D02*
X139137963Y-87405868D01*
X139137963Y-87405868D02*
X139090344Y-87358249D01*
X139090344Y-87358249D02*
X139042724Y-87263011D01*
X139042724Y-87263011D02*
X139042724Y-87120154D01*
X139947486Y-88596345D02*
X139995105Y-88643964D01*
X139995105Y-88643964D02*
X140042724Y-88739202D01*
X140042724Y-88739202D02*
X140042724Y-88977297D01*
X140042724Y-88977297D02*
X139995105Y-89072535D01*
X139995105Y-89072535D02*
X139947486Y-89120154D01*
X139947486Y-89120154D02*
X139852248Y-89167773D01*
X139852248Y-89167773D02*
X139757010Y-89167773D01*
X139757010Y-89167773D02*
X139614153Y-89120154D01*
X139614153Y-89120154D02*
X139042724Y-88548726D01*
X139042724Y-88548726D02*
X139042724Y-89167773D01*
X140042724Y-89786821D02*
X140042724Y-89882059D01*
X140042724Y-89882059D02*
X139995105Y-89977297D01*
X139995105Y-89977297D02*
X139947486Y-90024916D01*
X139947486Y-90024916D02*
X139852248Y-90072535D01*
X139852248Y-90072535D02*
X139661772Y-90120154D01*
X139661772Y-90120154D02*
X139423677Y-90120154D01*
X139423677Y-90120154D02*
X139233201Y-90072535D01*
X139233201Y-90072535D02*
X139137963Y-90024916D01*
X139137963Y-90024916D02*
X139090344Y-89977297D01*
X139090344Y-89977297D02*
X139042724Y-89882059D01*
X139042724Y-89882059D02*
X139042724Y-89786821D01*
X139042724Y-89786821D02*
X139090344Y-89691583D01*
X139090344Y-89691583D02*
X139137963Y-89643964D01*
X139137963Y-89643964D02*
X139233201Y-89596345D01*
X139233201Y-89596345D02*
X139423677Y-89548726D01*
X139423677Y-89548726D02*
X139661772Y-89548726D01*
X139661772Y-89548726D02*
X139852248Y-89596345D01*
X139852248Y-89596345D02*
X139947486Y-89643964D01*
X139947486Y-89643964D02*
X139995105Y-89691583D01*
X139995105Y-89691583D02*
X140042724Y-89786821D01*
X139947486Y-90501107D02*
X139995105Y-90548726D01*
X139995105Y-90548726D02*
X140042724Y-90643964D01*
X140042724Y-90643964D02*
X140042724Y-90882059D01*
X140042724Y-90882059D02*
X139995105Y-90977297D01*
X139995105Y-90977297D02*
X139947486Y-91024916D01*
X139947486Y-91024916D02*
X139852248Y-91072535D01*
X139852248Y-91072535D02*
X139757010Y-91072535D01*
X139757010Y-91072535D02*
X139614153Y-91024916D01*
X139614153Y-91024916D02*
X139042724Y-90453488D01*
X139042724Y-90453488D02*
X139042724Y-91072535D01*
X139709391Y-91929678D02*
X139042724Y-91929678D01*
X140090344Y-91691583D02*
X139376058Y-91453488D01*
X139376058Y-91453488D02*
X139376058Y-92072535D01*
X138385161Y-63453482D02*
X138432780Y-63358244D01*
X138432780Y-63358244D02*
X138432780Y-63215387D01*
X138432780Y-63215387D02*
X138385161Y-63072530D01*
X138385161Y-63072530D02*
X138289923Y-62977292D01*
X138289923Y-62977292D02*
X138194685Y-62929673D01*
X138194685Y-62929673D02*
X138004209Y-62882054D01*
X138004209Y-62882054D02*
X137861352Y-62882054D01*
X137861352Y-62882054D02*
X137670876Y-62929673D01*
X137670876Y-62929673D02*
X137575638Y-62977292D01*
X137575638Y-62977292D02*
X137480400Y-63072530D01*
X137480400Y-63072530D02*
X137432780Y-63215387D01*
X137432780Y-63215387D02*
X137432780Y-63310625D01*
X137432780Y-63310625D02*
X137480400Y-63453482D01*
X137480400Y-63453482D02*
X137528019Y-63501101D01*
X137528019Y-63501101D02*
X137861352Y-63501101D01*
X137861352Y-63501101D02*
X137861352Y-63310625D01*
X137432780Y-63929673D02*
X138099447Y-63929673D01*
X137908971Y-63929673D02*
X138004209Y-63977292D01*
X138004209Y-63977292D02*
X138051828Y-64024911D01*
X138051828Y-64024911D02*
X138099447Y-64120149D01*
X138099447Y-64120149D02*
X138099447Y-64215387D01*
X138099447Y-64977292D02*
X137432780Y-64977292D01*
X138099447Y-64548721D02*
X137575638Y-64548721D01*
X137575638Y-64548721D02*
X137480400Y-64596340D01*
X137480400Y-64596340D02*
X137432780Y-64691578D01*
X137432780Y-64691578D02*
X137432780Y-64834435D01*
X137432780Y-64834435D02*
X137480400Y-64929673D01*
X137480400Y-64929673D02*
X137528019Y-64977292D01*
X138099447Y-65453483D02*
X137099447Y-65453483D01*
X138051828Y-65453483D02*
X138099447Y-65548721D01*
X138099447Y-65548721D02*
X138099447Y-65739197D01*
X138099447Y-65739197D02*
X138051828Y-65834435D01*
X138051828Y-65834435D02*
X138004209Y-65882054D01*
X138004209Y-65882054D02*
X137908971Y-65929673D01*
X137908971Y-65929673D02*
X137623257Y-65929673D01*
X137623257Y-65929673D02*
X137528019Y-65882054D01*
X137528019Y-65882054D02*
X137480400Y-65834435D01*
X137480400Y-65834435D02*
X137432780Y-65739197D01*
X137432780Y-65739197D02*
X137432780Y-65548721D01*
X137432780Y-65548721D02*
X137480400Y-65453483D01*
X137432780Y-66501102D02*
X137480400Y-66405864D01*
X137480400Y-66405864D02*
X137528019Y-66358245D01*
X137528019Y-66358245D02*
X137623257Y-66310626D01*
X137623257Y-66310626D02*
X137908971Y-66310626D01*
X137908971Y-66310626D02*
X138004209Y-66358245D01*
X138004209Y-66358245D02*
X138051828Y-66405864D01*
X138051828Y-66405864D02*
X138099447Y-66501102D01*
X138099447Y-66501102D02*
X138099447Y-66643959D01*
X138099447Y-66643959D02*
X138051828Y-66739197D01*
X138051828Y-66739197D02*
X138004209Y-66786816D01*
X138004209Y-66786816D02*
X137908971Y-66834435D01*
X137908971Y-66834435D02*
X137623257Y-66834435D01*
X137623257Y-66834435D02*
X137528019Y-66786816D01*
X137528019Y-66786816D02*
X137480400Y-66739197D01*
X137480400Y-66739197D02*
X137432780Y-66643959D01*
X137432780Y-66643959D02*
X137432780Y-66501102D01*
X138432780Y-67929674D02*
X137432780Y-68167769D01*
X137432780Y-68167769D02*
X138147066Y-68358245D01*
X138147066Y-68358245D02*
X137432780Y-68548721D01*
X137432780Y-68548721D02*
X138432780Y-68786817D01*
X137432780Y-69596340D02*
X137956590Y-69596340D01*
X137956590Y-69596340D02*
X138051828Y-69548721D01*
X138051828Y-69548721D02*
X138099447Y-69453483D01*
X138099447Y-69453483D02*
X138099447Y-69263007D01*
X138099447Y-69263007D02*
X138051828Y-69167769D01*
X137480400Y-69596340D02*
X137432780Y-69501102D01*
X137432780Y-69501102D02*
X137432780Y-69263007D01*
X137432780Y-69263007D02*
X137480400Y-69167769D01*
X137480400Y-69167769D02*
X137575638Y-69120150D01*
X137575638Y-69120150D02*
X137670876Y-69120150D01*
X137670876Y-69120150D02*
X137766114Y-69167769D01*
X137766114Y-69167769D02*
X137813733Y-69263007D01*
X137813733Y-69263007D02*
X137813733Y-69501102D01*
X137813733Y-69501102D02*
X137861352Y-69596340D01*
X138099447Y-69929674D02*
X138099447Y-70310626D01*
X138432780Y-70072531D02*
X137575638Y-70072531D01*
X137575638Y-70072531D02*
X137480400Y-70120150D01*
X137480400Y-70120150D02*
X137432780Y-70215388D01*
X137432780Y-70215388D02*
X137432780Y-70310626D01*
X138099447Y-70501103D02*
X138099447Y-70882055D01*
X138432780Y-70643960D02*
X137575638Y-70643960D01*
X137575638Y-70643960D02*
X137480400Y-70691579D01*
X137480400Y-70691579D02*
X137432780Y-70786817D01*
X137432780Y-70786817D02*
X137432780Y-70882055D01*
X137480400Y-71167770D02*
X137432780Y-71310627D01*
X137432780Y-71310627D02*
X137432780Y-71548722D01*
X137432780Y-71548722D02*
X137480400Y-71643960D01*
X137480400Y-71643960D02*
X137528019Y-71691579D01*
X137528019Y-71691579D02*
X137623257Y-71739198D01*
X137623257Y-71739198D02*
X137718495Y-71739198D01*
X137718495Y-71739198D02*
X137813733Y-71691579D01*
X137813733Y-71691579D02*
X137861352Y-71643960D01*
X137861352Y-71643960D02*
X137908971Y-71548722D01*
X137908971Y-71548722D02*
X137956590Y-71358246D01*
X137956590Y-71358246D02*
X138004209Y-71263008D01*
X138004209Y-71263008D02*
X138051828Y-71215389D01*
X138051828Y-71215389D02*
X138147066Y-71167770D01*
X138147066Y-71167770D02*
X138242304Y-71167770D01*
X138242304Y-71167770D02*
X138337542Y-71215389D01*
X138337542Y-71215389D02*
X138385161Y-71263008D01*
X138385161Y-71263008D02*
X138432780Y-71358246D01*
X138432780Y-71358246D02*
X138432780Y-71596341D01*
X138432780Y-71596341D02*
X138385161Y-71739198D01*
X138099447Y-72072532D02*
X137432780Y-72310627D01*
X138099447Y-72548722D02*
X137432780Y-72310627D01*
X137432780Y-72310627D02*
X137194685Y-72215389D01*
X137194685Y-72215389D02*
X137147066Y-72167770D01*
X137147066Y-72167770D02*
X137099447Y-72072532D01*
X138099447Y-72929675D02*
X137432780Y-72929675D01*
X138004209Y-72929675D02*
X138051828Y-72977294D01*
X138051828Y-72977294D02*
X138099447Y-73072532D01*
X138099447Y-73072532D02*
X138099447Y-73215389D01*
X138099447Y-73215389D02*
X138051828Y-73310627D01*
X138051828Y-73310627D02*
X137956590Y-73358246D01*
X137956590Y-73358246D02*
X137432780Y-73358246D01*
X137480400Y-74263008D02*
X137432780Y-74167770D01*
X137432780Y-74167770D02*
X137432780Y-73977294D01*
X137432780Y-73977294D02*
X137480400Y-73882056D01*
X137480400Y-73882056D02*
X137528019Y-73834437D01*
X137528019Y-73834437D02*
X137623257Y-73786818D01*
X137623257Y-73786818D02*
X137908971Y-73786818D01*
X137908971Y-73786818D02*
X138004209Y-73834437D01*
X138004209Y-73834437D02*
X138051828Y-73882056D01*
X138051828Y-73882056D02*
X138099447Y-73977294D01*
X138099447Y-73977294D02*
X138099447Y-74167770D01*
X138099447Y-74167770D02*
X138051828Y-74263008D01*
X138432780Y-75643961D02*
X138432780Y-75739199D01*
X138432780Y-75739199D02*
X138385161Y-75834437D01*
X138385161Y-75834437D02*
X138337542Y-75882056D01*
X138337542Y-75882056D02*
X138242304Y-75929675D01*
X138242304Y-75929675D02*
X138051828Y-75977294D01*
X138051828Y-75977294D02*
X137813733Y-75977294D01*
X137813733Y-75977294D02*
X137623257Y-75929675D01*
X137623257Y-75929675D02*
X137528019Y-75882056D01*
X137528019Y-75882056D02*
X137480400Y-75834437D01*
X137480400Y-75834437D02*
X137432780Y-75739199D01*
X137432780Y-75739199D02*
X137432780Y-75643961D01*
X137432780Y-75643961D02*
X137480400Y-75548723D01*
X137480400Y-75548723D02*
X137528019Y-75501104D01*
X137528019Y-75501104D02*
X137623257Y-75453485D01*
X137623257Y-75453485D02*
X137813733Y-75405866D01*
X137813733Y-75405866D02*
X138051828Y-75405866D01*
X138051828Y-75405866D02*
X138242304Y-75453485D01*
X138242304Y-75453485D02*
X138337542Y-75501104D01*
X138337542Y-75501104D02*
X138385161Y-75548723D01*
X138385161Y-75548723D02*
X138432780Y-75643961D01*
X138337542Y-76358247D02*
X138385161Y-76405866D01*
X138385161Y-76405866D02*
X138432780Y-76501104D01*
X138432780Y-76501104D02*
X138432780Y-76739199D01*
X138432780Y-76739199D02*
X138385161Y-76834437D01*
X138385161Y-76834437D02*
X138337542Y-76882056D01*
X138337542Y-76882056D02*
X138242304Y-76929675D01*
X138242304Y-76929675D02*
X138147066Y-76929675D01*
X138147066Y-76929675D02*
X138004209Y-76882056D01*
X138004209Y-76882056D02*
X137432780Y-76310628D01*
X137432780Y-76310628D02*
X137432780Y-76929675D01*
X138480400Y-78072532D02*
X137194685Y-77215390D01*
X137432780Y-78929675D02*
X137432780Y-78358247D01*
X137432780Y-78643961D02*
X138432780Y-78643961D01*
X138432780Y-78643961D02*
X138289923Y-78548723D01*
X138289923Y-78548723D02*
X138194685Y-78453485D01*
X138194685Y-78453485D02*
X138147066Y-78358247D01*
X138337542Y-79310628D02*
X138385161Y-79358247D01*
X138385161Y-79358247D02*
X138432780Y-79453485D01*
X138432780Y-79453485D02*
X138432780Y-79691580D01*
X138432780Y-79691580D02*
X138385161Y-79786818D01*
X138385161Y-79786818D02*
X138337542Y-79834437D01*
X138337542Y-79834437D02*
X138242304Y-79882056D01*
X138242304Y-79882056D02*
X138147066Y-79882056D01*
X138147066Y-79882056D02*
X138004209Y-79834437D01*
X138004209Y-79834437D02*
X137432780Y-79263009D01*
X137432780Y-79263009D02*
X137432780Y-79882056D01*
X138480400Y-81024913D02*
X137194685Y-80167771D01*
X138337542Y-81310628D02*
X138385161Y-81358247D01*
X138385161Y-81358247D02*
X138432780Y-81453485D01*
X138432780Y-81453485D02*
X138432780Y-81691580D01*
X138432780Y-81691580D02*
X138385161Y-81786818D01*
X138385161Y-81786818D02*
X138337542Y-81834437D01*
X138337542Y-81834437D02*
X138242304Y-81882056D01*
X138242304Y-81882056D02*
X138147066Y-81882056D01*
X138147066Y-81882056D02*
X138004209Y-81834437D01*
X138004209Y-81834437D02*
X137432780Y-81263009D01*
X137432780Y-81263009D02*
X137432780Y-81882056D01*
X138099447Y-82739199D02*
X137432780Y-82739199D01*
X138480400Y-82501104D02*
X137766114Y-82263009D01*
X137766114Y-82263009D02*
X137766114Y-82882056D01*
D10*
X75938796Y-134370828D02*
X75224510Y-134370828D01*
X75224510Y-134370828D02*
X75224510Y-132870828D01*
X76438796Y-133799400D02*
X77581654Y-133799400D01*
X78295939Y-134370828D02*
X78295939Y-132870828D01*
X79010225Y-134370828D02*
X79010225Y-132870828D01*
X79010225Y-132870828D02*
X79867368Y-134370828D01*
X79867368Y-134370828D02*
X79867368Y-132870828D01*
X76868796Y-106805912D02*
X76154510Y-106805912D01*
X76154510Y-106805912D02*
X76154510Y-105305912D01*
X77368796Y-106234484D02*
X78511654Y-106234484D01*
X79511654Y-105305912D02*
X79797368Y-105305912D01*
X79797368Y-105305912D02*
X79940225Y-105377341D01*
X79940225Y-105377341D02*
X80083082Y-105520198D01*
X80083082Y-105520198D02*
X80154511Y-105805912D01*
X80154511Y-105805912D02*
X80154511Y-106305912D01*
X80154511Y-106305912D02*
X80083082Y-106591626D01*
X80083082Y-106591626D02*
X79940225Y-106734484D01*
X79940225Y-106734484D02*
X79797368Y-106805912D01*
X79797368Y-106805912D02*
X79511654Y-106805912D01*
X79511654Y-106805912D02*
X79368797Y-106734484D01*
X79368797Y-106734484D02*
X79225939Y-106591626D01*
X79225939Y-106591626D02*
X79154511Y-106305912D01*
X79154511Y-106305912D02*
X79154511Y-105805912D01*
X79154511Y-105805912D02*
X79225939Y-105520198D01*
X79225939Y-105520198D02*
X79368797Y-105377341D01*
X79368797Y-105377341D02*
X79511654Y-105305912D01*
X80797368Y-105305912D02*
X80797368Y-106520198D01*
X80797368Y-106520198D02*
X80868797Y-106663055D01*
X80868797Y-106663055D02*
X80940226Y-106734484D01*
X80940226Y-106734484D02*
X81083083Y-106805912D01*
X81083083Y-106805912D02*
X81368797Y-106805912D01*
X81368797Y-106805912D02*
X81511654Y-106734484D01*
X81511654Y-106734484D02*
X81583083Y-106663055D01*
X81583083Y-106663055D02*
X81654511Y-106520198D01*
X81654511Y-106520198D02*
X81654511Y-105305912D01*
X82154512Y-105305912D02*
X83011655Y-105305912D01*
X82583083Y-106805912D02*
X82583083Y-105305912D01*
X129531653Y-131900828D02*
X129888796Y-133400828D01*
X129888796Y-133400828D02*
X130174510Y-132329400D01*
X130174510Y-132329400D02*
X130460225Y-133400828D01*
X130460225Y-133400828D02*
X130817368Y-131900828D01*
X132031654Y-133400828D02*
X132031654Y-132615114D01*
X132031654Y-132615114D02*
X131960225Y-132472257D01*
X131960225Y-132472257D02*
X131817368Y-132400828D01*
X131817368Y-132400828D02*
X131531654Y-132400828D01*
X131531654Y-132400828D02*
X131388796Y-132472257D01*
X132031654Y-133329400D02*
X131888796Y-133400828D01*
X131888796Y-133400828D02*
X131531654Y-133400828D01*
X131531654Y-133400828D02*
X131388796Y-133329400D01*
X131388796Y-133329400D02*
X131317368Y-133186542D01*
X131317368Y-133186542D02*
X131317368Y-133043685D01*
X131317368Y-133043685D02*
X131388796Y-132900828D01*
X131388796Y-132900828D02*
X131531654Y-132829400D01*
X131531654Y-132829400D02*
X131888796Y-132829400D01*
X131888796Y-132829400D02*
X132031654Y-132757971D01*
X132531654Y-132400828D02*
X133103082Y-132400828D01*
X132745939Y-131900828D02*
X132745939Y-133186542D01*
X132745939Y-133186542D02*
X132817368Y-133329400D01*
X132817368Y-133329400D02*
X132960225Y-133400828D01*
X132960225Y-133400828D02*
X133103082Y-133400828D01*
X133388797Y-132400828D02*
X133960225Y-132400828D01*
X133603082Y-131900828D02*
X133603082Y-133186542D01*
X133603082Y-133186542D02*
X133674511Y-133329400D01*
X133674511Y-133329400D02*
X133817368Y-133400828D01*
X133817368Y-133400828D02*
X133960225Y-133400828D01*
X134388797Y-133329400D02*
X134603083Y-133400828D01*
X134603083Y-133400828D02*
X134960225Y-133400828D01*
X134960225Y-133400828D02*
X135103083Y-133329400D01*
X135103083Y-133329400D02*
X135174511Y-133257971D01*
X135174511Y-133257971D02*
X135245940Y-133115114D01*
X135245940Y-133115114D02*
X135245940Y-132972257D01*
X135245940Y-132972257D02*
X135174511Y-132829400D01*
X135174511Y-132829400D02*
X135103083Y-132757971D01*
X135103083Y-132757971D02*
X134960225Y-132686542D01*
X134960225Y-132686542D02*
X134674511Y-132615114D01*
X134674511Y-132615114D02*
X134531654Y-132543685D01*
X134531654Y-132543685D02*
X134460225Y-132472257D01*
X134460225Y-132472257D02*
X134388797Y-132329400D01*
X134388797Y-132329400D02*
X134388797Y-132186542D01*
X134388797Y-132186542D02*
X134460225Y-132043685D01*
X134460225Y-132043685D02*
X134531654Y-131972257D01*
X134531654Y-131972257D02*
X134674511Y-131900828D01*
X134674511Y-131900828D02*
X135031654Y-131900828D01*
X135031654Y-131900828D02*
X135245940Y-131972257D01*
X135745939Y-132400828D02*
X136103082Y-133400828D01*
X136460225Y-132400828D02*
X136103082Y-133400828D01*
X136103082Y-133400828D02*
X135960225Y-133757971D01*
X135960225Y-133757971D02*
X135888796Y-133829400D01*
X135888796Y-133829400D02*
X135745939Y-133900828D01*
X137031653Y-132400828D02*
X137031653Y-133400828D01*
X137031653Y-132543685D02*
X137103082Y-132472257D01*
X137103082Y-132472257D02*
X137245939Y-132400828D01*
X137245939Y-132400828D02*
X137460225Y-132400828D01*
X137460225Y-132400828D02*
X137603082Y-132472257D01*
X137603082Y-132472257D02*
X137674511Y-132615114D01*
X137674511Y-132615114D02*
X137674511Y-133400828D01*
X139031654Y-133329400D02*
X138888796Y-133400828D01*
X138888796Y-133400828D02*
X138603082Y-133400828D01*
X138603082Y-133400828D02*
X138460225Y-133329400D01*
X138460225Y-133329400D02*
X138388796Y-133257971D01*
X138388796Y-133257971D02*
X138317368Y-133115114D01*
X138317368Y-133115114D02*
X138317368Y-132686542D01*
X138317368Y-132686542D02*
X138388796Y-132543685D01*
X138388796Y-132543685D02*
X138460225Y-132472257D01*
X138460225Y-132472257D02*
X138603082Y-132400828D01*
X138603082Y-132400828D02*
X138888796Y-132400828D01*
X138888796Y-132400828D02*
X139031654Y-132472257D01*
D12*
X74993809Y-49718628D02*
X74993809Y-50194819D01*
X74660476Y-49194819D02*
X74993809Y-49718628D01*
X74993809Y-49718628D02*
X75327142Y-49194819D01*
X76184285Y-50194819D02*
X75612857Y-50194819D01*
X75898571Y-50194819D02*
X75898571Y-49194819D01*
X75898571Y-49194819D02*
X75803333Y-49337676D01*
X75803333Y-49337676D02*
X75708095Y-49432914D01*
X75708095Y-49432914D02*
X75612857Y-49480533D01*
X138823333Y-108229580D02*
X138775714Y-108277200D01*
X138775714Y-108277200D02*
X138632857Y-108324819D01*
X138632857Y-108324819D02*
X138537619Y-108324819D01*
X138537619Y-108324819D02*
X138394762Y-108277200D01*
X138394762Y-108277200D02*
X138299524Y-108181961D01*
X138299524Y-108181961D02*
X138251905Y-108086723D01*
X138251905Y-108086723D02*
X138204286Y-107896247D01*
X138204286Y-107896247D02*
X138204286Y-107753390D01*
X138204286Y-107753390D02*
X138251905Y-107562914D01*
X138251905Y-107562914D02*
X138299524Y-107467676D01*
X138299524Y-107467676D02*
X138394762Y-107372438D01*
X138394762Y-107372438D02*
X138537619Y-107324819D01*
X138537619Y-107324819D02*
X138632857Y-107324819D01*
X138632857Y-107324819D02*
X138775714Y-107372438D01*
X138775714Y-107372438D02*
X138823333Y-107420057D01*
X139728095Y-107324819D02*
X139251905Y-107324819D01*
X139251905Y-107324819D02*
X139204286Y-107801009D01*
X139204286Y-107801009D02*
X139251905Y-107753390D01*
X139251905Y-107753390D02*
X139347143Y-107705771D01*
X139347143Y-107705771D02*
X139585238Y-107705771D01*
X139585238Y-107705771D02*
X139680476Y-107753390D01*
X139680476Y-107753390D02*
X139728095Y-107801009D01*
X139728095Y-107801009D02*
X139775714Y-107896247D01*
X139775714Y-107896247D02*
X139775714Y-108134342D01*
X139775714Y-108134342D02*
X139728095Y-108229580D01*
X139728095Y-108229580D02*
X139680476Y-108277200D01*
X139680476Y-108277200D02*
X139585238Y-108324819D01*
X139585238Y-108324819D02*
X139347143Y-108324819D01*
X139347143Y-108324819D02*
X139251905Y-108277200D01*
X139251905Y-108277200D02*
X139204286Y-108229580D01*
X103361428Y-55684819D02*
X103028095Y-55208628D01*
X102790000Y-55684819D02*
X102790000Y-54684819D01*
X102790000Y-54684819D02*
X103170952Y-54684819D01*
X103170952Y-54684819D02*
X103266190Y-54732438D01*
X103266190Y-54732438D02*
X103313809Y-54780057D01*
X103313809Y-54780057D02*
X103361428Y-54875295D01*
X103361428Y-54875295D02*
X103361428Y-55018152D01*
X103361428Y-55018152D02*
X103313809Y-55113390D01*
X103313809Y-55113390D02*
X103266190Y-55161009D01*
X103266190Y-55161009D02*
X103170952Y-55208628D01*
X103170952Y-55208628D02*
X102790000Y-55208628D01*
X103790000Y-55161009D02*
X104123333Y-55161009D01*
X104266190Y-55684819D02*
X103790000Y-55684819D01*
X103790000Y-55684819D02*
X103790000Y-54684819D01*
X103790000Y-54684819D02*
X104266190Y-54684819D01*
X104647143Y-55637200D02*
X104790000Y-55684819D01*
X104790000Y-55684819D02*
X105028095Y-55684819D01*
X105028095Y-55684819D02*
X105123333Y-55637200D01*
X105123333Y-55637200D02*
X105170952Y-55589580D01*
X105170952Y-55589580D02*
X105218571Y-55494342D01*
X105218571Y-55494342D02*
X105218571Y-55399104D01*
X105218571Y-55399104D02*
X105170952Y-55303866D01*
X105170952Y-55303866D02*
X105123333Y-55256247D01*
X105123333Y-55256247D02*
X105028095Y-55208628D01*
X105028095Y-55208628D02*
X104837619Y-55161009D01*
X104837619Y-55161009D02*
X104742381Y-55113390D01*
X104742381Y-55113390D02*
X104694762Y-55065771D01*
X104694762Y-55065771D02*
X104647143Y-54970533D01*
X104647143Y-54970533D02*
X104647143Y-54875295D01*
X104647143Y-54875295D02*
X104694762Y-54780057D01*
X104694762Y-54780057D02*
X104742381Y-54732438D01*
X104742381Y-54732438D02*
X104837619Y-54684819D01*
X104837619Y-54684819D02*
X105075714Y-54684819D01*
X105075714Y-54684819D02*
X105218571Y-54732438D01*
X105647143Y-55161009D02*
X105980476Y-55161009D01*
X106123333Y-55684819D02*
X105647143Y-55684819D01*
X105647143Y-55684819D02*
X105647143Y-54684819D01*
X105647143Y-54684819D02*
X106123333Y-54684819D01*
X106409048Y-54684819D02*
X106980476Y-54684819D01*
X106694762Y-55684819D02*
X106694762Y-54684819D01*
X107837619Y-55684819D02*
X107266191Y-55684819D01*
X107551905Y-55684819D02*
X107551905Y-54684819D01*
X107551905Y-54684819D02*
X107456667Y-54827676D01*
X107456667Y-54827676D02*
X107361429Y-54922914D01*
X107361429Y-54922914D02*
X107266191Y-54970533D01*
X79970057Y-98465238D02*
X79922438Y-98560476D01*
X79922438Y-98560476D02*
X79827200Y-98655714D01*
X79827200Y-98655714D02*
X79684342Y-98798571D01*
X79684342Y-98798571D02*
X79636723Y-98893809D01*
X79636723Y-98893809D02*
X79636723Y-98989047D01*
X79874819Y-98941428D02*
X79827200Y-99036666D01*
X79827200Y-99036666D02*
X79731961Y-99131904D01*
X79731961Y-99131904D02*
X79541485Y-99179523D01*
X79541485Y-99179523D02*
X79208152Y-99179523D01*
X79208152Y-99179523D02*
X79017676Y-99131904D01*
X79017676Y-99131904D02*
X78922438Y-99036666D01*
X78922438Y-99036666D02*
X78874819Y-98941428D01*
X78874819Y-98941428D02*
X78874819Y-98750952D01*
X78874819Y-98750952D02*
X78922438Y-98655714D01*
X78922438Y-98655714D02*
X79017676Y-98560476D01*
X79017676Y-98560476D02*
X79208152Y-98512857D01*
X79208152Y-98512857D02*
X79541485Y-98512857D01*
X79541485Y-98512857D02*
X79731961Y-98560476D01*
X79731961Y-98560476D02*
X79827200Y-98655714D01*
X79827200Y-98655714D02*
X79874819Y-98750952D01*
X79874819Y-98750952D02*
X79874819Y-98941428D01*
X78970057Y-98131904D02*
X78922438Y-98084285D01*
X78922438Y-98084285D02*
X78874819Y-97989047D01*
X78874819Y-97989047D02*
X78874819Y-97750952D01*
X78874819Y-97750952D02*
X78922438Y-97655714D01*
X78922438Y-97655714D02*
X78970057Y-97608095D01*
X78970057Y-97608095D02*
X79065295Y-97560476D01*
X79065295Y-97560476D02*
X79160533Y-97560476D01*
X79160533Y-97560476D02*
X79303390Y-97608095D01*
X79303390Y-97608095D02*
X79874819Y-98179523D01*
X79874819Y-98179523D02*
X79874819Y-97560476D01*
X71935238Y-69854819D02*
X71363810Y-69854819D01*
X71649524Y-69854819D02*
X71649524Y-68854819D01*
X71649524Y-68854819D02*
X71554286Y-68997676D01*
X71554286Y-68997676D02*
X71459048Y-69092914D01*
X71459048Y-69092914D02*
X71363810Y-69140533D01*
X72268572Y-68854819D02*
X72935238Y-68854819D01*
X72935238Y-68854819D02*
X72506667Y-69854819D01*
X73316191Y-69759580D02*
X73363810Y-69807200D01*
X73363810Y-69807200D02*
X73316191Y-69854819D01*
X73316191Y-69854819D02*
X73268572Y-69807200D01*
X73268572Y-69807200D02*
X73316191Y-69759580D01*
X73316191Y-69759580D02*
X73316191Y-69854819D01*
X74316190Y-69854819D02*
X73744762Y-69854819D01*
X74030476Y-69854819D02*
X74030476Y-68854819D01*
X74030476Y-68854819D02*
X73935238Y-68997676D01*
X73935238Y-68997676D02*
X73840000Y-69092914D01*
X73840000Y-69092914D02*
X73744762Y-69140533D01*
X115644819Y-70236666D02*
X115168628Y-70569999D01*
X115644819Y-70808094D02*
X114644819Y-70808094D01*
X114644819Y-70808094D02*
X114644819Y-70427142D01*
X114644819Y-70427142D02*
X114692438Y-70331904D01*
X114692438Y-70331904D02*
X114740057Y-70284285D01*
X114740057Y-70284285D02*
X114835295Y-70236666D01*
X114835295Y-70236666D02*
X114978152Y-70236666D01*
X114978152Y-70236666D02*
X115073390Y-70284285D01*
X115073390Y-70284285D02*
X115121009Y-70331904D01*
X115121009Y-70331904D02*
X115168628Y-70427142D01*
X115168628Y-70427142D02*
X115168628Y-70808094D01*
X114644819Y-69379523D02*
X114644819Y-69569999D01*
X114644819Y-69569999D02*
X114692438Y-69665237D01*
X114692438Y-69665237D02*
X114740057Y-69712856D01*
X114740057Y-69712856D02*
X114882914Y-69808094D01*
X114882914Y-69808094D02*
X115073390Y-69855713D01*
X115073390Y-69855713D02*
X115454342Y-69855713D01*
X115454342Y-69855713D02*
X115549580Y-69808094D01*
X115549580Y-69808094D02*
X115597200Y-69760475D01*
X115597200Y-69760475D02*
X115644819Y-69665237D01*
X115644819Y-69665237D02*
X115644819Y-69474761D01*
X115644819Y-69474761D02*
X115597200Y-69379523D01*
X115597200Y-69379523D02*
X115549580Y-69331904D01*
X115549580Y-69331904D02*
X115454342Y-69284285D01*
X115454342Y-69284285D02*
X115216247Y-69284285D01*
X115216247Y-69284285D02*
X115121009Y-69331904D01*
X115121009Y-69331904D02*
X115073390Y-69379523D01*
X115073390Y-69379523D02*
X115025771Y-69474761D01*
X115025771Y-69474761D02*
X115025771Y-69665237D01*
X115025771Y-69665237D02*
X115073390Y-69760475D01*
X115073390Y-69760475D02*
X115121009Y-69808094D01*
X115121009Y-69808094D02*
X115216247Y-69855713D01*
X137254819Y-86298094D02*
X136254819Y-86298094D01*
X136254819Y-86298094D02*
X136254819Y-86059999D01*
X136254819Y-86059999D02*
X136302438Y-85917142D01*
X136302438Y-85917142D02*
X136397676Y-85821904D01*
X136397676Y-85821904D02*
X136492914Y-85774285D01*
X136492914Y-85774285D02*
X136683390Y-85726666D01*
X136683390Y-85726666D02*
X136826247Y-85726666D01*
X136826247Y-85726666D02*
X137016723Y-85774285D01*
X137016723Y-85774285D02*
X137111961Y-85821904D01*
X137111961Y-85821904D02*
X137207200Y-85917142D01*
X137207200Y-85917142D02*
X137254819Y-86059999D01*
X137254819Y-86059999D02*
X137254819Y-86298094D01*
X136350057Y-85345713D02*
X136302438Y-85298094D01*
X136302438Y-85298094D02*
X136254819Y-85202856D01*
X136254819Y-85202856D02*
X136254819Y-84964761D01*
X136254819Y-84964761D02*
X136302438Y-84869523D01*
X136302438Y-84869523D02*
X136350057Y-84821904D01*
X136350057Y-84821904D02*
X136445295Y-84774285D01*
X136445295Y-84774285D02*
X136540533Y-84774285D01*
X136540533Y-84774285D02*
X136683390Y-84821904D01*
X136683390Y-84821904D02*
X137254819Y-85393332D01*
X137254819Y-85393332D02*
X137254819Y-84774285D01*
X132654819Y-91321904D02*
X131654819Y-91321904D01*
X132654819Y-90750476D02*
X132083390Y-91179047D01*
X131654819Y-90750476D02*
X132226247Y-91321904D01*
X119818095Y-107364819D02*
X119818095Y-108174342D01*
X119818095Y-108174342D02*
X119865714Y-108269580D01*
X119865714Y-108269580D02*
X119913333Y-108317200D01*
X119913333Y-108317200D02*
X120008571Y-108364819D01*
X120008571Y-108364819D02*
X120199047Y-108364819D01*
X120199047Y-108364819D02*
X120294285Y-108317200D01*
X120294285Y-108317200D02*
X120341904Y-108269580D01*
X120341904Y-108269580D02*
X120389523Y-108174342D01*
X120389523Y-108174342D02*
X120389523Y-107364819D01*
X121294285Y-107698152D02*
X121294285Y-108364819D01*
X121056190Y-107317200D02*
X120818095Y-108031485D01*
X120818095Y-108031485D02*
X121437142Y-108031485D01*
X116784819Y-86718094D02*
X115784819Y-86718094D01*
X115784819Y-86718094D02*
X115784819Y-86479999D01*
X115784819Y-86479999D02*
X115832438Y-86337142D01*
X115832438Y-86337142D02*
X115927676Y-86241904D01*
X115927676Y-86241904D02*
X116022914Y-86194285D01*
X116022914Y-86194285D02*
X116213390Y-86146666D01*
X116213390Y-86146666D02*
X116356247Y-86146666D01*
X116356247Y-86146666D02*
X116546723Y-86194285D01*
X116546723Y-86194285D02*
X116641961Y-86241904D01*
X116641961Y-86241904D02*
X116737200Y-86337142D01*
X116737200Y-86337142D02*
X116784819Y-86479999D01*
X116784819Y-86479999D02*
X116784819Y-86718094D01*
X116784819Y-85194285D02*
X116784819Y-85765713D01*
X116784819Y-85479999D02*
X115784819Y-85479999D01*
X115784819Y-85479999D02*
X115927676Y-85575237D01*
X115927676Y-85575237D02*
X116022914Y-85670475D01*
X116022914Y-85670475D02*
X116070533Y-85765713D01*
X116754819Y-91321904D02*
X115754819Y-91321904D01*
X116754819Y-90750476D02*
X116183390Y-91179047D01*
X115754819Y-90750476D02*
X116326247Y-91321904D01*
X80183333Y-41324819D02*
X79850000Y-40848628D01*
X79611905Y-41324819D02*
X79611905Y-40324819D01*
X79611905Y-40324819D02*
X79992857Y-40324819D01*
X79992857Y-40324819D02*
X80088095Y-40372438D01*
X80088095Y-40372438D02*
X80135714Y-40420057D01*
X80135714Y-40420057D02*
X80183333Y-40515295D01*
X80183333Y-40515295D02*
X80183333Y-40658152D01*
X80183333Y-40658152D02*
X80135714Y-40753390D01*
X80135714Y-40753390D02*
X80088095Y-40801009D01*
X80088095Y-40801009D02*
X79992857Y-40848628D01*
X79992857Y-40848628D02*
X79611905Y-40848628D01*
X81088095Y-40324819D02*
X80611905Y-40324819D01*
X80611905Y-40324819D02*
X80564286Y-40801009D01*
X80564286Y-40801009D02*
X80611905Y-40753390D01*
X80611905Y-40753390D02*
X80707143Y-40705771D01*
X80707143Y-40705771D02*
X80945238Y-40705771D01*
X80945238Y-40705771D02*
X81040476Y-40753390D01*
X81040476Y-40753390D02*
X81088095Y-40801009D01*
X81088095Y-40801009D02*
X81135714Y-40896247D01*
X81135714Y-40896247D02*
X81135714Y-41134342D01*
X81135714Y-41134342D02*
X81088095Y-41229580D01*
X81088095Y-41229580D02*
X81040476Y-41277200D01*
X81040476Y-41277200D02*
X80945238Y-41324819D01*
X80945238Y-41324819D02*
X80707143Y-41324819D01*
X80707143Y-41324819D02*
X80611905Y-41277200D01*
X80611905Y-41277200D02*
X80564286Y-41229580D01*
X116382857Y-51564819D02*
X116382857Y-50564819D01*
X116382857Y-50564819D02*
X116620952Y-50564819D01*
X116620952Y-50564819D02*
X116763809Y-50612438D01*
X116763809Y-50612438D02*
X116859047Y-50707676D01*
X116859047Y-50707676D02*
X116906666Y-50802914D01*
X116906666Y-50802914D02*
X116954285Y-50993390D01*
X116954285Y-50993390D02*
X116954285Y-51136247D01*
X116954285Y-51136247D02*
X116906666Y-51326723D01*
X116906666Y-51326723D02*
X116859047Y-51421961D01*
X116859047Y-51421961D02*
X116763809Y-51517200D01*
X116763809Y-51517200D02*
X116620952Y-51564819D01*
X116620952Y-51564819D02*
X116382857Y-51564819D01*
X117382857Y-51183866D02*
X118144762Y-51183866D01*
X119144761Y-51564819D02*
X118573333Y-51564819D01*
X118859047Y-51564819D02*
X118859047Y-50564819D01*
X118859047Y-50564819D02*
X118763809Y-50707676D01*
X118763809Y-50707676D02*
X118668571Y-50802914D01*
X118668571Y-50802914D02*
X118573333Y-50850533D01*
X71924819Y-72096666D02*
X71448628Y-72429999D01*
X71924819Y-72668094D02*
X70924819Y-72668094D01*
X70924819Y-72668094D02*
X70924819Y-72287142D01*
X70924819Y-72287142D02*
X70972438Y-72191904D01*
X70972438Y-72191904D02*
X71020057Y-72144285D01*
X71020057Y-72144285D02*
X71115295Y-72096666D01*
X71115295Y-72096666D02*
X71258152Y-72096666D01*
X71258152Y-72096666D02*
X71353390Y-72144285D01*
X71353390Y-72144285D02*
X71401009Y-72191904D01*
X71401009Y-72191904D02*
X71448628Y-72287142D01*
X71448628Y-72287142D02*
X71448628Y-72668094D01*
X71353390Y-71525237D02*
X71305771Y-71620475D01*
X71305771Y-71620475D02*
X71258152Y-71668094D01*
X71258152Y-71668094D02*
X71162914Y-71715713D01*
X71162914Y-71715713D02*
X71115295Y-71715713D01*
X71115295Y-71715713D02*
X71020057Y-71668094D01*
X71020057Y-71668094D02*
X70972438Y-71620475D01*
X70972438Y-71620475D02*
X70924819Y-71525237D01*
X70924819Y-71525237D02*
X70924819Y-71334761D01*
X70924819Y-71334761D02*
X70972438Y-71239523D01*
X70972438Y-71239523D02*
X71020057Y-71191904D01*
X71020057Y-71191904D02*
X71115295Y-71144285D01*
X71115295Y-71144285D02*
X71162914Y-71144285D01*
X71162914Y-71144285D02*
X71258152Y-71191904D01*
X71258152Y-71191904D02*
X71305771Y-71239523D01*
X71305771Y-71239523D02*
X71353390Y-71334761D01*
X71353390Y-71334761D02*
X71353390Y-71525237D01*
X71353390Y-71525237D02*
X71401009Y-71620475D01*
X71401009Y-71620475D02*
X71448628Y-71668094D01*
X71448628Y-71668094D02*
X71543866Y-71715713D01*
X71543866Y-71715713D02*
X71734342Y-71715713D01*
X71734342Y-71715713D02*
X71829580Y-71668094D01*
X71829580Y-71668094D02*
X71877200Y-71620475D01*
X71877200Y-71620475D02*
X71924819Y-71525237D01*
X71924819Y-71525237D02*
X71924819Y-71334761D01*
X71924819Y-71334761D02*
X71877200Y-71239523D01*
X71877200Y-71239523D02*
X71829580Y-71191904D01*
X71829580Y-71191904D02*
X71734342Y-71144285D01*
X71734342Y-71144285D02*
X71543866Y-71144285D01*
X71543866Y-71144285D02*
X71448628Y-71191904D01*
X71448628Y-71191904D02*
X71401009Y-71239523D01*
X71401009Y-71239523D02*
X71353390Y-71334761D01*
X128254819Y-83726666D02*
X127778628Y-84059999D01*
X128254819Y-84298094D02*
X127254819Y-84298094D01*
X127254819Y-84298094D02*
X127254819Y-83917142D01*
X127254819Y-83917142D02*
X127302438Y-83821904D01*
X127302438Y-83821904D02*
X127350057Y-83774285D01*
X127350057Y-83774285D02*
X127445295Y-83726666D01*
X127445295Y-83726666D02*
X127588152Y-83726666D01*
X127588152Y-83726666D02*
X127683390Y-83774285D01*
X127683390Y-83774285D02*
X127731009Y-83821904D01*
X127731009Y-83821904D02*
X127778628Y-83917142D01*
X127778628Y-83917142D02*
X127778628Y-84298094D01*
X127254819Y-83393332D02*
X127254819Y-82774285D01*
X127254819Y-82774285D02*
X127635771Y-83107618D01*
X127635771Y-83107618D02*
X127635771Y-82964761D01*
X127635771Y-82964761D02*
X127683390Y-82869523D01*
X127683390Y-82869523D02*
X127731009Y-82821904D01*
X127731009Y-82821904D02*
X127826247Y-82774285D01*
X127826247Y-82774285D02*
X128064342Y-82774285D01*
X128064342Y-82774285D02*
X128159580Y-82821904D01*
X128159580Y-82821904D02*
X128207200Y-82869523D01*
X128207200Y-82869523D02*
X128254819Y-82964761D01*
X128254819Y-82964761D02*
X128254819Y-83250475D01*
X128254819Y-83250475D02*
X128207200Y-83345713D01*
X128207200Y-83345713D02*
X128159580Y-83393332D01*
X117254819Y-47621904D02*
X118064342Y-47621904D01*
X118064342Y-47621904D02*
X118159580Y-47574285D01*
X118159580Y-47574285D02*
X118207200Y-47526666D01*
X118207200Y-47526666D02*
X118254819Y-47431428D01*
X118254819Y-47431428D02*
X118254819Y-47240952D01*
X118254819Y-47240952D02*
X118207200Y-47145714D01*
X118207200Y-47145714D02*
X118159580Y-47098095D01*
X118159580Y-47098095D02*
X118064342Y-47050476D01*
X118064342Y-47050476D02*
X117254819Y-47050476D01*
X118254819Y-46050476D02*
X118254819Y-46621904D01*
X118254819Y-46336190D02*
X117254819Y-46336190D01*
X117254819Y-46336190D02*
X117397676Y-46431428D01*
X117397676Y-46431428D02*
X117492914Y-46526666D01*
X117492914Y-46526666D02*
X117540533Y-46621904D01*
X93503333Y-51084819D02*
X93170000Y-50608628D01*
X92931905Y-51084819D02*
X92931905Y-50084819D01*
X92931905Y-50084819D02*
X93312857Y-50084819D01*
X93312857Y-50084819D02*
X93408095Y-50132438D01*
X93408095Y-50132438D02*
X93455714Y-50180057D01*
X93455714Y-50180057D02*
X93503333Y-50275295D01*
X93503333Y-50275295D02*
X93503333Y-50418152D01*
X93503333Y-50418152D02*
X93455714Y-50513390D01*
X93455714Y-50513390D02*
X93408095Y-50561009D01*
X93408095Y-50561009D02*
X93312857Y-50608628D01*
X93312857Y-50608628D02*
X92931905Y-50608628D01*
X94455714Y-51084819D02*
X93884286Y-51084819D01*
X94170000Y-51084819D02*
X94170000Y-50084819D01*
X94170000Y-50084819D02*
X94074762Y-50227676D01*
X94074762Y-50227676D02*
X93979524Y-50322914D01*
X93979524Y-50322914D02*
X93884286Y-50370533D01*
X121284819Y-68798094D02*
X120284819Y-68798094D01*
X120284819Y-68798094D02*
X120284819Y-68559999D01*
X120284819Y-68559999D02*
X120332438Y-68417142D01*
X120332438Y-68417142D02*
X120427676Y-68321904D01*
X120427676Y-68321904D02*
X120522914Y-68274285D01*
X120522914Y-68274285D02*
X120713390Y-68226666D01*
X120713390Y-68226666D02*
X120856247Y-68226666D01*
X120856247Y-68226666D02*
X121046723Y-68274285D01*
X121046723Y-68274285D02*
X121141961Y-68321904D01*
X121141961Y-68321904D02*
X121237200Y-68417142D01*
X121237200Y-68417142D02*
X121284819Y-68559999D01*
X121284819Y-68559999D02*
X121284819Y-68798094D01*
X120284819Y-67893332D02*
X120284819Y-67274285D01*
X120284819Y-67274285D02*
X120665771Y-67607618D01*
X120665771Y-67607618D02*
X120665771Y-67464761D01*
X120665771Y-67464761D02*
X120713390Y-67369523D01*
X120713390Y-67369523D02*
X120761009Y-67321904D01*
X120761009Y-67321904D02*
X120856247Y-67274285D01*
X120856247Y-67274285D02*
X121094342Y-67274285D01*
X121094342Y-67274285D02*
X121189580Y-67321904D01*
X121189580Y-67321904D02*
X121237200Y-67369523D01*
X121237200Y-67369523D02*
X121284819Y-67464761D01*
X121284819Y-67464761D02*
X121284819Y-67750475D01*
X121284819Y-67750475D02*
X121237200Y-67845713D01*
X121237200Y-67845713D02*
X121189580Y-67893332D01*
X121654819Y-73401904D02*
X120654819Y-73401904D01*
X121654819Y-72830476D02*
X121083390Y-73259047D01*
X120654819Y-72830476D02*
X121226247Y-73401904D01*
D13*
X122591905Y-80627419D02*
X122591905Y-79627419D01*
X123163333Y-80627419D02*
X122734762Y-80055990D01*
X123163333Y-79627419D02*
X122591905Y-80198847D01*
X124115714Y-80627419D02*
X123544286Y-80627419D01*
X123830000Y-80627419D02*
X123830000Y-79627419D01*
X123830000Y-79627419D02*
X123734762Y-79770276D01*
X123734762Y-79770276D02*
X123639524Y-79865514D01*
X123639524Y-79865514D02*
X123544286Y-79913133D01*
D12*
X101024819Y-62291904D02*
X101834342Y-62291904D01*
X101834342Y-62291904D02*
X101929580Y-62244285D01*
X101929580Y-62244285D02*
X101977200Y-62196666D01*
X101977200Y-62196666D02*
X102024819Y-62101428D01*
X102024819Y-62101428D02*
X102024819Y-61910952D01*
X102024819Y-61910952D02*
X101977200Y-61815714D01*
X101977200Y-61815714D02*
X101929580Y-61768095D01*
X101929580Y-61768095D02*
X101834342Y-61720476D01*
X101834342Y-61720476D02*
X101024819Y-61720476D01*
X101024819Y-61339523D02*
X101024819Y-60720476D01*
X101024819Y-60720476D02*
X101405771Y-61053809D01*
X101405771Y-61053809D02*
X101405771Y-60910952D01*
X101405771Y-60910952D02*
X101453390Y-60815714D01*
X101453390Y-60815714D02*
X101501009Y-60768095D01*
X101501009Y-60768095D02*
X101596247Y-60720476D01*
X101596247Y-60720476D02*
X101834342Y-60720476D01*
X101834342Y-60720476D02*
X101929580Y-60768095D01*
X101929580Y-60768095D02*
X101977200Y-60815714D01*
X101977200Y-60815714D02*
X102024819Y-60910952D01*
X102024819Y-60910952D02*
X102024819Y-61196666D01*
X102024819Y-61196666D02*
X101977200Y-61291904D01*
X101977200Y-61291904D02*
X101929580Y-61339523D01*
X119164761Y-99674819D02*
X118831428Y-99198628D01*
X118593333Y-99674819D02*
X118593333Y-98674819D01*
X118593333Y-98674819D02*
X118974285Y-98674819D01*
X118974285Y-98674819D02*
X119069523Y-98722438D01*
X119069523Y-98722438D02*
X119117142Y-98770057D01*
X119117142Y-98770057D02*
X119164761Y-98865295D01*
X119164761Y-98865295D02*
X119164761Y-99008152D01*
X119164761Y-99008152D02*
X119117142Y-99103390D01*
X119117142Y-99103390D02*
X119069523Y-99151009D01*
X119069523Y-99151009D02*
X118974285Y-99198628D01*
X118974285Y-99198628D02*
X118593333Y-99198628D01*
X119450476Y-98674819D02*
X119783809Y-99674819D01*
X119783809Y-99674819D02*
X120117142Y-98674819D01*
X120355238Y-98674819D02*
X120974285Y-98674819D01*
X120974285Y-98674819D02*
X120640952Y-99055771D01*
X120640952Y-99055771D02*
X120783809Y-99055771D01*
X120783809Y-99055771D02*
X120879047Y-99103390D01*
X120879047Y-99103390D02*
X120926666Y-99151009D01*
X120926666Y-99151009D02*
X120974285Y-99246247D01*
X120974285Y-99246247D02*
X120974285Y-99484342D01*
X120974285Y-99484342D02*
X120926666Y-99579580D01*
X120926666Y-99579580D02*
X120879047Y-99627200D01*
X120879047Y-99627200D02*
X120783809Y-99674819D01*
X120783809Y-99674819D02*
X120498095Y-99674819D01*
X120498095Y-99674819D02*
X120402857Y-99627200D01*
X120402857Y-99627200D02*
X120355238Y-99579580D01*
X76409580Y-41226666D02*
X76457200Y-41274285D01*
X76457200Y-41274285D02*
X76504819Y-41417142D01*
X76504819Y-41417142D02*
X76504819Y-41512380D01*
X76504819Y-41512380D02*
X76457200Y-41655237D01*
X76457200Y-41655237D02*
X76361961Y-41750475D01*
X76361961Y-41750475D02*
X76266723Y-41798094D01*
X76266723Y-41798094D02*
X76076247Y-41845713D01*
X76076247Y-41845713D02*
X75933390Y-41845713D01*
X75933390Y-41845713D02*
X75742914Y-41798094D01*
X75742914Y-41798094D02*
X75647676Y-41750475D01*
X75647676Y-41750475D02*
X75552438Y-41655237D01*
X75552438Y-41655237D02*
X75504819Y-41512380D01*
X75504819Y-41512380D02*
X75504819Y-41417142D01*
X75504819Y-41417142D02*
X75552438Y-41274285D01*
X75552438Y-41274285D02*
X75600057Y-41226666D01*
X75504819Y-40369523D02*
X75504819Y-40559999D01*
X75504819Y-40559999D02*
X75552438Y-40655237D01*
X75552438Y-40655237D02*
X75600057Y-40702856D01*
X75600057Y-40702856D02*
X75742914Y-40798094D01*
X75742914Y-40798094D02*
X75933390Y-40845713D01*
X75933390Y-40845713D02*
X76314342Y-40845713D01*
X76314342Y-40845713D02*
X76409580Y-40798094D01*
X76409580Y-40798094D02*
X76457200Y-40750475D01*
X76457200Y-40750475D02*
X76504819Y-40655237D01*
X76504819Y-40655237D02*
X76504819Y-40464761D01*
X76504819Y-40464761D02*
X76457200Y-40369523D01*
X76457200Y-40369523D02*
X76409580Y-40321904D01*
X76409580Y-40321904D02*
X76314342Y-40274285D01*
X76314342Y-40274285D02*
X76076247Y-40274285D01*
X76076247Y-40274285D02*
X75981009Y-40321904D01*
X75981009Y-40321904D02*
X75933390Y-40369523D01*
X75933390Y-40369523D02*
X75885771Y-40464761D01*
X75885771Y-40464761D02*
X75885771Y-40655237D01*
X75885771Y-40655237D02*
X75933390Y-40750475D01*
X75933390Y-40750475D02*
X75981009Y-40798094D01*
X75981009Y-40798094D02*
X76076247Y-40845713D01*
X109930057Y-79015238D02*
X109882438Y-79110476D01*
X109882438Y-79110476D02*
X109787200Y-79205714D01*
X109787200Y-79205714D02*
X109644342Y-79348571D01*
X109644342Y-79348571D02*
X109596723Y-79443809D01*
X109596723Y-79443809D02*
X109596723Y-79539047D01*
X109834819Y-79491428D02*
X109787200Y-79586666D01*
X109787200Y-79586666D02*
X109691961Y-79681904D01*
X109691961Y-79681904D02*
X109501485Y-79729523D01*
X109501485Y-79729523D02*
X109168152Y-79729523D01*
X109168152Y-79729523D02*
X108977676Y-79681904D01*
X108977676Y-79681904D02*
X108882438Y-79586666D01*
X108882438Y-79586666D02*
X108834819Y-79491428D01*
X108834819Y-79491428D02*
X108834819Y-79300952D01*
X108834819Y-79300952D02*
X108882438Y-79205714D01*
X108882438Y-79205714D02*
X108977676Y-79110476D01*
X108977676Y-79110476D02*
X109168152Y-79062857D01*
X109168152Y-79062857D02*
X109501485Y-79062857D01*
X109501485Y-79062857D02*
X109691961Y-79110476D01*
X109691961Y-79110476D02*
X109787200Y-79205714D01*
X109787200Y-79205714D02*
X109834819Y-79300952D01*
X109834819Y-79300952D02*
X109834819Y-79491428D01*
X109834819Y-78110476D02*
X109834819Y-78681904D01*
X109834819Y-78396190D02*
X108834819Y-78396190D01*
X108834819Y-78396190D02*
X108977676Y-78491428D01*
X108977676Y-78491428D02*
X109072914Y-78586666D01*
X109072914Y-78586666D02*
X109120533Y-78681904D01*
X69603333Y-53779580D02*
X69555714Y-53827200D01*
X69555714Y-53827200D02*
X69412857Y-53874819D01*
X69412857Y-53874819D02*
X69317619Y-53874819D01*
X69317619Y-53874819D02*
X69174762Y-53827200D01*
X69174762Y-53827200D02*
X69079524Y-53731961D01*
X69079524Y-53731961D02*
X69031905Y-53636723D01*
X69031905Y-53636723D02*
X68984286Y-53446247D01*
X68984286Y-53446247D02*
X68984286Y-53303390D01*
X68984286Y-53303390D02*
X69031905Y-53112914D01*
X69031905Y-53112914D02*
X69079524Y-53017676D01*
X69079524Y-53017676D02*
X69174762Y-52922438D01*
X69174762Y-52922438D02*
X69317619Y-52874819D01*
X69317619Y-52874819D02*
X69412857Y-52874819D01*
X69412857Y-52874819D02*
X69555714Y-52922438D01*
X69555714Y-52922438D02*
X69603333Y-52970057D01*
X69984286Y-52970057D02*
X70031905Y-52922438D01*
X70031905Y-52922438D02*
X70127143Y-52874819D01*
X70127143Y-52874819D02*
X70365238Y-52874819D01*
X70365238Y-52874819D02*
X70460476Y-52922438D01*
X70460476Y-52922438D02*
X70508095Y-52970057D01*
X70508095Y-52970057D02*
X70555714Y-53065295D01*
X70555714Y-53065295D02*
X70555714Y-53160533D01*
X70555714Y-53160533D02*
X70508095Y-53303390D01*
X70508095Y-53303390D02*
X69936667Y-53874819D01*
X69936667Y-53874819D02*
X70555714Y-53874819D01*
X69723333Y-51359580D02*
X69675714Y-51407200D01*
X69675714Y-51407200D02*
X69532857Y-51454819D01*
X69532857Y-51454819D02*
X69437619Y-51454819D01*
X69437619Y-51454819D02*
X69294762Y-51407200D01*
X69294762Y-51407200D02*
X69199524Y-51311961D01*
X69199524Y-51311961D02*
X69151905Y-51216723D01*
X69151905Y-51216723D02*
X69104286Y-51026247D01*
X69104286Y-51026247D02*
X69104286Y-50883390D01*
X69104286Y-50883390D02*
X69151905Y-50692914D01*
X69151905Y-50692914D02*
X69199524Y-50597676D01*
X69199524Y-50597676D02*
X69294762Y-50502438D01*
X69294762Y-50502438D02*
X69437619Y-50454819D01*
X69437619Y-50454819D02*
X69532857Y-50454819D01*
X69532857Y-50454819D02*
X69675714Y-50502438D01*
X69675714Y-50502438D02*
X69723333Y-50550057D01*
X70675714Y-51454819D02*
X70104286Y-51454819D01*
X70390000Y-51454819D02*
X70390000Y-50454819D01*
X70390000Y-50454819D02*
X70294762Y-50597676D01*
X70294762Y-50597676D02*
X70199524Y-50692914D01*
X70199524Y-50692914D02*
X70104286Y-50740533D01*
X103658263Y-65721009D02*
X103801120Y-65768628D01*
X103801120Y-65768628D02*
X103848739Y-65816247D01*
X103848739Y-65816247D02*
X103896358Y-65911485D01*
X103896358Y-65911485D02*
X103896358Y-66054342D01*
X103896358Y-66054342D02*
X103848739Y-66149580D01*
X103848739Y-66149580D02*
X103801120Y-66197200D01*
X103801120Y-66197200D02*
X103705882Y-66244819D01*
X103705882Y-66244819D02*
X103324930Y-66244819D01*
X103324930Y-66244819D02*
X103324930Y-65244819D01*
X103324930Y-65244819D02*
X103658263Y-65244819D01*
X103658263Y-65244819D02*
X103753501Y-65292438D01*
X103753501Y-65292438D02*
X103801120Y-65340057D01*
X103801120Y-65340057D02*
X103848739Y-65435295D01*
X103848739Y-65435295D02*
X103848739Y-65530533D01*
X103848739Y-65530533D02*
X103801120Y-65625771D01*
X103801120Y-65625771D02*
X103753501Y-65673390D01*
X103753501Y-65673390D02*
X103658263Y-65721009D01*
X103658263Y-65721009D02*
X103324930Y-65721009D01*
X104229692Y-65244819D02*
X104896358Y-65244819D01*
X104896358Y-65244819D02*
X104229692Y-66244819D01*
X104229692Y-66244819D02*
X104896358Y-66244819D01*
X105801120Y-66244819D02*
X105229692Y-66244819D01*
X105515406Y-66244819D02*
X105515406Y-65244819D01*
X105515406Y-65244819D02*
X105420168Y-65387676D01*
X105420168Y-65387676D02*
X105324930Y-65482914D01*
X105324930Y-65482914D02*
X105229692Y-65530533D01*
X80043333Y-45644819D02*
X79710000Y-45168628D01*
X79471905Y-45644819D02*
X79471905Y-44644819D01*
X79471905Y-44644819D02*
X79852857Y-44644819D01*
X79852857Y-44644819D02*
X79948095Y-44692438D01*
X79948095Y-44692438D02*
X79995714Y-44740057D01*
X79995714Y-44740057D02*
X80043333Y-44835295D01*
X80043333Y-44835295D02*
X80043333Y-44978152D01*
X80043333Y-44978152D02*
X79995714Y-45073390D01*
X79995714Y-45073390D02*
X79948095Y-45121009D01*
X79948095Y-45121009D02*
X79852857Y-45168628D01*
X79852857Y-45168628D02*
X79471905Y-45168628D01*
X80424286Y-44740057D02*
X80471905Y-44692438D01*
X80471905Y-44692438D02*
X80567143Y-44644819D01*
X80567143Y-44644819D02*
X80805238Y-44644819D01*
X80805238Y-44644819D02*
X80900476Y-44692438D01*
X80900476Y-44692438D02*
X80948095Y-44740057D01*
X80948095Y-44740057D02*
X80995714Y-44835295D01*
X80995714Y-44835295D02*
X80995714Y-44930533D01*
X80995714Y-44930533D02*
X80948095Y-45073390D01*
X80948095Y-45073390D02*
X80376667Y-45644819D01*
X80376667Y-45644819D02*
X80995714Y-45644819D01*
X93984819Y-73326666D02*
X93508628Y-73659999D01*
X93984819Y-73898094D02*
X92984819Y-73898094D01*
X92984819Y-73898094D02*
X92984819Y-73517142D01*
X92984819Y-73517142D02*
X93032438Y-73421904D01*
X93032438Y-73421904D02*
X93080057Y-73374285D01*
X93080057Y-73374285D02*
X93175295Y-73326666D01*
X93175295Y-73326666D02*
X93318152Y-73326666D01*
X93318152Y-73326666D02*
X93413390Y-73374285D01*
X93413390Y-73374285D02*
X93461009Y-73421904D01*
X93461009Y-73421904D02*
X93508628Y-73517142D01*
X93508628Y-73517142D02*
X93508628Y-73898094D01*
X92984819Y-72993332D02*
X92984819Y-72326666D01*
X92984819Y-72326666D02*
X93984819Y-72755237D01*
X127784819Y-68798094D02*
X126784819Y-68798094D01*
X126784819Y-68798094D02*
X126784819Y-68559999D01*
X126784819Y-68559999D02*
X126832438Y-68417142D01*
X126832438Y-68417142D02*
X126927676Y-68321904D01*
X126927676Y-68321904D02*
X127022914Y-68274285D01*
X127022914Y-68274285D02*
X127213390Y-68226666D01*
X127213390Y-68226666D02*
X127356247Y-68226666D01*
X127356247Y-68226666D02*
X127546723Y-68274285D01*
X127546723Y-68274285D02*
X127641961Y-68321904D01*
X127641961Y-68321904D02*
X127737200Y-68417142D01*
X127737200Y-68417142D02*
X127784819Y-68559999D01*
X127784819Y-68559999D02*
X127784819Y-68798094D01*
X127118152Y-67369523D02*
X127784819Y-67369523D01*
X126737200Y-67607618D02*
X127451485Y-67845713D01*
X127451485Y-67845713D02*
X127451485Y-67226666D01*
X128154819Y-73401904D02*
X127154819Y-73401904D01*
X128154819Y-72830476D02*
X127583390Y-73259047D01*
X127154819Y-72830476D02*
X127726247Y-73401904D01*
X112573333Y-108169580D02*
X112525714Y-108217200D01*
X112525714Y-108217200D02*
X112382857Y-108264819D01*
X112382857Y-108264819D02*
X112287619Y-108264819D01*
X112287619Y-108264819D02*
X112144762Y-108217200D01*
X112144762Y-108217200D02*
X112049524Y-108121961D01*
X112049524Y-108121961D02*
X112001905Y-108026723D01*
X112001905Y-108026723D02*
X111954286Y-107836247D01*
X111954286Y-107836247D02*
X111954286Y-107693390D01*
X111954286Y-107693390D02*
X112001905Y-107502914D01*
X112001905Y-107502914D02*
X112049524Y-107407676D01*
X112049524Y-107407676D02*
X112144762Y-107312438D01*
X112144762Y-107312438D02*
X112287619Y-107264819D01*
X112287619Y-107264819D02*
X112382857Y-107264819D01*
X112382857Y-107264819D02*
X112525714Y-107312438D01*
X112525714Y-107312438D02*
X112573333Y-107360057D01*
X113430476Y-107598152D02*
X113430476Y-108264819D01*
X113192381Y-107217200D02*
X112954286Y-107931485D01*
X112954286Y-107931485D02*
X113573333Y-107931485D01*
X77335238Y-69774819D02*
X76763810Y-69774819D01*
X77049524Y-69774819D02*
X77049524Y-68774819D01*
X77049524Y-68774819D02*
X76954286Y-68917676D01*
X76954286Y-68917676D02*
X76859048Y-69012914D01*
X76859048Y-69012914D02*
X76763810Y-69060533D01*
X77811429Y-69774819D02*
X78001905Y-69774819D01*
X78001905Y-69774819D02*
X78097143Y-69727200D01*
X78097143Y-69727200D02*
X78144762Y-69679580D01*
X78144762Y-69679580D02*
X78240000Y-69536723D01*
X78240000Y-69536723D02*
X78287619Y-69346247D01*
X78287619Y-69346247D02*
X78287619Y-68965295D01*
X78287619Y-68965295D02*
X78240000Y-68870057D01*
X78240000Y-68870057D02*
X78192381Y-68822438D01*
X78192381Y-68822438D02*
X78097143Y-68774819D01*
X78097143Y-68774819D02*
X77906667Y-68774819D01*
X77906667Y-68774819D02*
X77811429Y-68822438D01*
X77811429Y-68822438D02*
X77763810Y-68870057D01*
X77763810Y-68870057D02*
X77716191Y-68965295D01*
X77716191Y-68965295D02*
X77716191Y-69203390D01*
X77716191Y-69203390D02*
X77763810Y-69298628D01*
X77763810Y-69298628D02*
X77811429Y-69346247D01*
X77811429Y-69346247D02*
X77906667Y-69393866D01*
X77906667Y-69393866D02*
X78097143Y-69393866D01*
X78097143Y-69393866D02*
X78192381Y-69346247D01*
X78192381Y-69346247D02*
X78240000Y-69298628D01*
X78240000Y-69298628D02*
X78287619Y-69203390D01*
X78716191Y-69679580D02*
X78763810Y-69727200D01*
X78763810Y-69727200D02*
X78716191Y-69774819D01*
X78716191Y-69774819D02*
X78668572Y-69727200D01*
X78668572Y-69727200D02*
X78716191Y-69679580D01*
X78716191Y-69679580D02*
X78716191Y-69774819D01*
X79716190Y-69774819D02*
X79144762Y-69774819D01*
X79430476Y-69774819D02*
X79430476Y-68774819D01*
X79430476Y-68774819D02*
X79335238Y-68917676D01*
X79335238Y-68917676D02*
X79240000Y-69012914D01*
X79240000Y-69012914D02*
X79144762Y-69060533D01*
X126174819Y-83846666D02*
X125698628Y-84179999D01*
X126174819Y-84418094D02*
X125174819Y-84418094D01*
X125174819Y-84418094D02*
X125174819Y-84037142D01*
X125174819Y-84037142D02*
X125222438Y-83941904D01*
X125222438Y-83941904D02*
X125270057Y-83894285D01*
X125270057Y-83894285D02*
X125365295Y-83846666D01*
X125365295Y-83846666D02*
X125508152Y-83846666D01*
X125508152Y-83846666D02*
X125603390Y-83894285D01*
X125603390Y-83894285D02*
X125651009Y-83941904D01*
X125651009Y-83941904D02*
X125698628Y-84037142D01*
X125698628Y-84037142D02*
X125698628Y-84418094D01*
X125508152Y-82989523D02*
X126174819Y-82989523D01*
X125127200Y-83227618D02*
X125841485Y-83465713D01*
X125841485Y-83465713D02*
X125841485Y-82846666D01*
X99328214Y-108267319D02*
X99328214Y-107267319D01*
X99328214Y-107267319D02*
X99709166Y-107267319D01*
X99709166Y-107267319D02*
X99804404Y-107314938D01*
X99804404Y-107314938D02*
X99852023Y-107362557D01*
X99852023Y-107362557D02*
X99899642Y-107457795D01*
X99899642Y-107457795D02*
X99899642Y-107600652D01*
X99899642Y-107600652D02*
X99852023Y-107695890D01*
X99852023Y-107695890D02*
X99804404Y-107743509D01*
X99804404Y-107743509D02*
X99709166Y-107791128D01*
X99709166Y-107791128D02*
X99328214Y-107791128D01*
X100280595Y-108219700D02*
X100423452Y-108267319D01*
X100423452Y-108267319D02*
X100661547Y-108267319D01*
X100661547Y-108267319D02*
X100756785Y-108219700D01*
X100756785Y-108219700D02*
X100804404Y-108172080D01*
X100804404Y-108172080D02*
X100852023Y-108076842D01*
X100852023Y-108076842D02*
X100852023Y-107981604D01*
X100852023Y-107981604D02*
X100804404Y-107886366D01*
X100804404Y-107886366D02*
X100756785Y-107838747D01*
X100756785Y-107838747D02*
X100661547Y-107791128D01*
X100661547Y-107791128D02*
X100471071Y-107743509D01*
X100471071Y-107743509D02*
X100375833Y-107695890D01*
X100375833Y-107695890D02*
X100328214Y-107648271D01*
X100328214Y-107648271D02*
X100280595Y-107553033D01*
X100280595Y-107553033D02*
X100280595Y-107457795D01*
X100280595Y-107457795D02*
X100328214Y-107362557D01*
X100328214Y-107362557D02*
X100375833Y-107314938D01*
X100375833Y-107314938D02*
X100471071Y-107267319D01*
X100471071Y-107267319D02*
X100709166Y-107267319D01*
X100709166Y-107267319D02*
X100852023Y-107314938D01*
X101804404Y-108267319D02*
X101232976Y-108267319D01*
X101518690Y-108267319D02*
X101518690Y-107267319D01*
X101518690Y-107267319D02*
X101423452Y-107410176D01*
X101423452Y-107410176D02*
X101328214Y-107505414D01*
X101328214Y-107505414D02*
X101232976Y-107553033D01*
X79534819Y-89728094D02*
X78534819Y-89728094D01*
X78534819Y-89728094D02*
X78534819Y-89489999D01*
X78534819Y-89489999D02*
X78582438Y-89347142D01*
X78582438Y-89347142D02*
X78677676Y-89251904D01*
X78677676Y-89251904D02*
X78772914Y-89204285D01*
X78772914Y-89204285D02*
X78963390Y-89156666D01*
X78963390Y-89156666D02*
X79106247Y-89156666D01*
X79106247Y-89156666D02*
X79296723Y-89204285D01*
X79296723Y-89204285D02*
X79391961Y-89251904D01*
X79391961Y-89251904D02*
X79487200Y-89347142D01*
X79487200Y-89347142D02*
X79534819Y-89489999D01*
X79534819Y-89489999D02*
X79534819Y-89728094D01*
X78534819Y-88251904D02*
X78534819Y-88728094D01*
X78534819Y-88728094D02*
X79011009Y-88775713D01*
X79011009Y-88775713D02*
X78963390Y-88728094D01*
X78963390Y-88728094D02*
X78915771Y-88632856D01*
X78915771Y-88632856D02*
X78915771Y-88394761D01*
X78915771Y-88394761D02*
X78963390Y-88299523D01*
X78963390Y-88299523D02*
X79011009Y-88251904D01*
X79011009Y-88251904D02*
X79106247Y-88204285D01*
X79106247Y-88204285D02*
X79344342Y-88204285D01*
X79344342Y-88204285D02*
X79439580Y-88251904D01*
X79439580Y-88251904D02*
X79487200Y-88299523D01*
X79487200Y-88299523D02*
X79534819Y-88394761D01*
X79534819Y-88394761D02*
X79534819Y-88632856D01*
X79534819Y-88632856D02*
X79487200Y-88728094D01*
X79487200Y-88728094D02*
X79439580Y-88775713D01*
X79164819Y-84171904D02*
X78164819Y-84171904D01*
X79164819Y-83600476D02*
X78593390Y-84029047D01*
X78164819Y-83600476D02*
X78736247Y-84171904D01*
X76354819Y-75821904D02*
X77164342Y-75821904D01*
X77164342Y-75821904D02*
X77259580Y-75774285D01*
X77259580Y-75774285D02*
X77307200Y-75726666D01*
X77307200Y-75726666D02*
X77354819Y-75631428D01*
X77354819Y-75631428D02*
X77354819Y-75440952D01*
X77354819Y-75440952D02*
X77307200Y-75345714D01*
X77307200Y-75345714D02*
X77259580Y-75298095D01*
X77259580Y-75298095D02*
X77164342Y-75250476D01*
X77164342Y-75250476D02*
X76354819Y-75250476D01*
X76450057Y-74821904D02*
X76402438Y-74774285D01*
X76402438Y-74774285D02*
X76354819Y-74679047D01*
X76354819Y-74679047D02*
X76354819Y-74440952D01*
X76354819Y-74440952D02*
X76402438Y-74345714D01*
X76402438Y-74345714D02*
X76450057Y-74298095D01*
X76450057Y-74298095D02*
X76545295Y-74250476D01*
X76545295Y-74250476D02*
X76640533Y-74250476D01*
X76640533Y-74250476D02*
X76783390Y-74298095D01*
X76783390Y-74298095D02*
X77354819Y-74869523D01*
X77354819Y-74869523D02*
X77354819Y-74250476D01*
X74735238Y-69824819D02*
X74163810Y-69824819D01*
X74449524Y-69824819D02*
X74449524Y-68824819D01*
X74449524Y-68824819D02*
X74354286Y-68967676D01*
X74354286Y-68967676D02*
X74259048Y-69062914D01*
X74259048Y-69062914D02*
X74163810Y-69110533D01*
X75306667Y-69253390D02*
X75211429Y-69205771D01*
X75211429Y-69205771D02*
X75163810Y-69158152D01*
X75163810Y-69158152D02*
X75116191Y-69062914D01*
X75116191Y-69062914D02*
X75116191Y-69015295D01*
X75116191Y-69015295D02*
X75163810Y-68920057D01*
X75163810Y-68920057D02*
X75211429Y-68872438D01*
X75211429Y-68872438D02*
X75306667Y-68824819D01*
X75306667Y-68824819D02*
X75497143Y-68824819D01*
X75497143Y-68824819D02*
X75592381Y-68872438D01*
X75592381Y-68872438D02*
X75640000Y-68920057D01*
X75640000Y-68920057D02*
X75687619Y-69015295D01*
X75687619Y-69015295D02*
X75687619Y-69062914D01*
X75687619Y-69062914D02*
X75640000Y-69158152D01*
X75640000Y-69158152D02*
X75592381Y-69205771D01*
X75592381Y-69205771D02*
X75497143Y-69253390D01*
X75497143Y-69253390D02*
X75306667Y-69253390D01*
X75306667Y-69253390D02*
X75211429Y-69301009D01*
X75211429Y-69301009D02*
X75163810Y-69348628D01*
X75163810Y-69348628D02*
X75116191Y-69443866D01*
X75116191Y-69443866D02*
X75116191Y-69634342D01*
X75116191Y-69634342D02*
X75163810Y-69729580D01*
X75163810Y-69729580D02*
X75211429Y-69777200D01*
X75211429Y-69777200D02*
X75306667Y-69824819D01*
X75306667Y-69824819D02*
X75497143Y-69824819D01*
X75497143Y-69824819D02*
X75592381Y-69777200D01*
X75592381Y-69777200D02*
X75640000Y-69729580D01*
X75640000Y-69729580D02*
X75687619Y-69634342D01*
X75687619Y-69634342D02*
X75687619Y-69443866D01*
X75687619Y-69443866D02*
X75640000Y-69348628D01*
X75640000Y-69348628D02*
X75592381Y-69301009D01*
X75592381Y-69301009D02*
X75497143Y-69253390D01*
X76116191Y-69729580D02*
X76163810Y-69777200D01*
X76163810Y-69777200D02*
X76116191Y-69824819D01*
X76116191Y-69824819D02*
X76068572Y-69777200D01*
X76068572Y-69777200D02*
X76116191Y-69729580D01*
X76116191Y-69729580D02*
X76116191Y-69824819D01*
X77116190Y-69824819D02*
X76544762Y-69824819D01*
X76830476Y-69824819D02*
X76830476Y-68824819D01*
X76830476Y-68824819D02*
X76735238Y-68967676D01*
X76735238Y-68967676D02*
X76640000Y-69062914D01*
X76640000Y-69062914D02*
X76544762Y-69110533D01*
X132704761Y-99674819D02*
X132371428Y-99198628D01*
X132133333Y-99674819D02*
X132133333Y-98674819D01*
X132133333Y-98674819D02*
X132514285Y-98674819D01*
X132514285Y-98674819D02*
X132609523Y-98722438D01*
X132609523Y-98722438D02*
X132657142Y-98770057D01*
X132657142Y-98770057D02*
X132704761Y-98865295D01*
X132704761Y-98865295D02*
X132704761Y-99008152D01*
X132704761Y-99008152D02*
X132657142Y-99103390D01*
X132657142Y-99103390D02*
X132609523Y-99151009D01*
X132609523Y-99151009D02*
X132514285Y-99198628D01*
X132514285Y-99198628D02*
X132133333Y-99198628D01*
X132990476Y-98674819D02*
X133323809Y-99674819D01*
X133323809Y-99674819D02*
X133657142Y-98674819D01*
X133942857Y-98770057D02*
X133990476Y-98722438D01*
X133990476Y-98722438D02*
X134085714Y-98674819D01*
X134085714Y-98674819D02*
X134323809Y-98674819D01*
X134323809Y-98674819D02*
X134419047Y-98722438D01*
X134419047Y-98722438D02*
X134466666Y-98770057D01*
X134466666Y-98770057D02*
X134514285Y-98865295D01*
X134514285Y-98865295D02*
X134514285Y-98960533D01*
X134514285Y-98960533D02*
X134466666Y-99103390D01*
X134466666Y-99103390D02*
X133895238Y-99674819D01*
X133895238Y-99674819D02*
X134514285Y-99674819D01*
X96904819Y-126905238D02*
X96428628Y-127238571D01*
X96904819Y-127476666D02*
X95904819Y-127476666D01*
X95904819Y-127476666D02*
X95904819Y-127095714D01*
X95904819Y-127095714D02*
X95952438Y-127000476D01*
X95952438Y-127000476D02*
X96000057Y-126952857D01*
X96000057Y-126952857D02*
X96095295Y-126905238D01*
X96095295Y-126905238D02*
X96238152Y-126905238D01*
X96238152Y-126905238D02*
X96333390Y-126952857D01*
X96333390Y-126952857D02*
X96381009Y-127000476D01*
X96381009Y-127000476D02*
X96428628Y-127095714D01*
X96428628Y-127095714D02*
X96428628Y-127476666D01*
X95904819Y-126619523D02*
X96904819Y-126286190D01*
X96904819Y-126286190D02*
X95904819Y-125952857D01*
X96904819Y-125095714D02*
X96904819Y-125667142D01*
X96904819Y-125381428D02*
X95904819Y-125381428D01*
X95904819Y-125381428D02*
X96047676Y-125476666D01*
X96047676Y-125476666D02*
X96142914Y-125571904D01*
X96142914Y-125571904D02*
X96190533Y-125667142D01*
X89231009Y-121143333D02*
X89231009Y-121476666D01*
X89754819Y-121476666D02*
X88754819Y-121476666D01*
X88754819Y-121476666D02*
X88754819Y-121000476D01*
X89754819Y-120095714D02*
X89754819Y-120667142D01*
X89754819Y-120381428D02*
X88754819Y-120381428D01*
X88754819Y-120381428D02*
X88897676Y-120476666D01*
X88897676Y-120476666D02*
X88992914Y-120571904D01*
X88992914Y-120571904D02*
X89040533Y-120667142D01*
X117092857Y-57564819D02*
X117092857Y-56564819D01*
X117092857Y-56564819D02*
X117330952Y-56564819D01*
X117330952Y-56564819D02*
X117473809Y-56612438D01*
X117473809Y-56612438D02*
X117569047Y-56707676D01*
X117569047Y-56707676D02*
X117616666Y-56802914D01*
X117616666Y-56802914D02*
X117664285Y-56993390D01*
X117664285Y-56993390D02*
X117664285Y-57136247D01*
X117664285Y-57136247D02*
X117616666Y-57326723D01*
X117616666Y-57326723D02*
X117569047Y-57421961D01*
X117569047Y-57421961D02*
X117473809Y-57517200D01*
X117473809Y-57517200D02*
X117330952Y-57564819D01*
X117330952Y-57564819D02*
X117092857Y-57564819D01*
X118092857Y-57183866D02*
X118854762Y-57183866D01*
X118473809Y-57564819D02*
X118473809Y-56802914D01*
X119854761Y-57564819D02*
X119283333Y-57564819D01*
X119569047Y-57564819D02*
X119569047Y-56564819D01*
X119569047Y-56564819D02*
X119473809Y-56707676D01*
X119473809Y-56707676D02*
X119378571Y-56802914D01*
X119378571Y-56802914D02*
X119283333Y-56850533D01*
D13*
X102608095Y-60917419D02*
X102608095Y-61726942D01*
X102608095Y-61726942D02*
X102655714Y-61822180D01*
X102655714Y-61822180D02*
X102703333Y-61869800D01*
X102703333Y-61869800D02*
X102798571Y-61917419D01*
X102798571Y-61917419D02*
X102989047Y-61917419D01*
X102989047Y-61917419D02*
X103084285Y-61869800D01*
X103084285Y-61869800D02*
X103131904Y-61822180D01*
X103131904Y-61822180D02*
X103179523Y-61726942D01*
X103179523Y-61726942D02*
X103179523Y-60917419D01*
X104131904Y-60917419D02*
X103655714Y-60917419D01*
X103655714Y-60917419D02*
X103608095Y-61393609D01*
X103608095Y-61393609D02*
X103655714Y-61345990D01*
X103655714Y-61345990D02*
X103750952Y-61298371D01*
X103750952Y-61298371D02*
X103989047Y-61298371D01*
X103989047Y-61298371D02*
X104084285Y-61345990D01*
X104084285Y-61345990D02*
X104131904Y-61393609D01*
X104131904Y-61393609D02*
X104179523Y-61488847D01*
X104179523Y-61488847D02*
X104179523Y-61726942D01*
X104179523Y-61726942D02*
X104131904Y-61822180D01*
X104131904Y-61822180D02*
X104084285Y-61869800D01*
X104084285Y-61869800D02*
X103989047Y-61917419D01*
X103989047Y-61917419D02*
X103750952Y-61917419D01*
X103750952Y-61917419D02*
X103655714Y-61869800D01*
X103655714Y-61869800D02*
X103608095Y-61822180D01*
D14*
%TO.C,Y1*%
X84525000Y-49625000D02*
X78275000Y-49625000D01*
X84525000Y-54675000D02*
X78275000Y-54675000D01*
X78275000Y-54675000D02*
G75*
G02*
X78275000Y-49625000I0J2525000D01*
G01*
X84525000Y-49625000D02*
G75*
G02*
X84525000Y-54675000I0J-2525000D01*
G01*
%TO.C,C5*%
X130220000Y-104230000D02*
X138380000Y-104230000D01*
X130220000Y-104270000D02*
X138380000Y-104270000D01*
X130220000Y-104310000D02*
X138380000Y-104310000D01*
X130221000Y-104190000D02*
X138379000Y-104190000D01*
X130223000Y-104150000D02*
X138377000Y-104150000D01*
X130224000Y-104110000D02*
X138376000Y-104110000D01*
X130226000Y-104070000D02*
X133260000Y-104070000D01*
X130229000Y-104030000D02*
X133260000Y-104030000D01*
X130232000Y-103990000D02*
X133260000Y-103990000D01*
X130235000Y-103950000D02*
X133260000Y-103950000D01*
X130239000Y-103910000D02*
X133260000Y-103910000D01*
X130243000Y-103870000D02*
X133260000Y-103870000D01*
X130248000Y-103830000D02*
X133260000Y-103830000D01*
X130252000Y-103790000D02*
X133260000Y-103790000D01*
X130258000Y-103750000D02*
X133260000Y-103750000D01*
X130263000Y-103710000D02*
X133260000Y-103710000D01*
X130270000Y-103670000D02*
X133260000Y-103670000D01*
X130276000Y-103630000D02*
X133260000Y-103630000D01*
X130283000Y-103589000D02*
X133260000Y-103589000D01*
X130290000Y-103549000D02*
X133260000Y-103549000D01*
X130298000Y-103509000D02*
X133260000Y-103509000D01*
X130306000Y-103469000D02*
X133260000Y-103469000D01*
X130315000Y-103429000D02*
X133260000Y-103429000D01*
X130324000Y-103389000D02*
X133260000Y-103389000D01*
X130333000Y-103349000D02*
X133260000Y-103349000D01*
X130343000Y-103309000D02*
X133260000Y-103309000D01*
X130353000Y-103269000D02*
X133260000Y-103269000D01*
X130364000Y-103229000D02*
X133260000Y-103229000D01*
X130375000Y-103189000D02*
X133260000Y-103189000D01*
X130386000Y-103149000D02*
X133260000Y-103149000D01*
X130398000Y-103109000D02*
X133260000Y-103109000D01*
X130411000Y-103069000D02*
X133260000Y-103069000D01*
X130423000Y-103029000D02*
X133260000Y-103029000D01*
X130437000Y-102989000D02*
X133260000Y-102989000D01*
X130450000Y-102949000D02*
X133260000Y-102949000D01*
X130465000Y-102909000D02*
X133260000Y-102909000D01*
X130479000Y-102869000D02*
X133260000Y-102869000D01*
X130495000Y-102829000D02*
X133260000Y-102829000D01*
X130510000Y-102789000D02*
X133260000Y-102789000D01*
X130526000Y-102749000D02*
X133260000Y-102749000D01*
X130543000Y-102709000D02*
X133260000Y-102709000D01*
X130560000Y-102669000D02*
X133260000Y-102669000D01*
X130578000Y-102629000D02*
X133260000Y-102629000D01*
X130596000Y-102589000D02*
X133260000Y-102589000D01*
X130614000Y-102549000D02*
X133260000Y-102549000D01*
X130634000Y-102509000D02*
X133260000Y-102509000D01*
X130653000Y-102469000D02*
X133260000Y-102469000D01*
X130673000Y-102429000D02*
X133260000Y-102429000D01*
X130694000Y-102389000D02*
X133260000Y-102389000D01*
X130716000Y-102349000D02*
X133260000Y-102349000D01*
X130738000Y-102309000D02*
X133260000Y-102309000D01*
X130760000Y-102269000D02*
X133260000Y-102269000D01*
X130783000Y-102229000D02*
X133260000Y-102229000D01*
X130807000Y-102189000D02*
X133260000Y-102189000D01*
X130831000Y-102149000D02*
X133260000Y-102149000D01*
X130856000Y-102109000D02*
X133260000Y-102109000D01*
X130882000Y-102069000D02*
X133260000Y-102069000D01*
X130908000Y-102029000D02*
X133260000Y-102029000D01*
X130935000Y-101989000D02*
X137665000Y-101989000D01*
X130962000Y-101949000D02*
X137638000Y-101949000D01*
X130991000Y-101909000D02*
X137609000Y-101909000D01*
X131020000Y-101869000D02*
X137580000Y-101869000D01*
X131050000Y-101829000D02*
X137550000Y-101829000D01*
X131080000Y-101789000D02*
X137520000Y-101789000D01*
X131111000Y-101749000D02*
X137489000Y-101749000D01*
X131144000Y-101709000D02*
X137456000Y-101709000D01*
X131176000Y-101669000D02*
X137424000Y-101669000D01*
X131210000Y-101629000D02*
X137390000Y-101629000D01*
X131245000Y-101589000D02*
X137355000Y-101589000D01*
X131281000Y-101549000D02*
X137319000Y-101549000D01*
X131317000Y-101509000D02*
X137283000Y-101509000D01*
X131355000Y-101469000D02*
X137245000Y-101469000D01*
X131393000Y-101429000D02*
X137207000Y-101429000D01*
X131433000Y-101389000D02*
X137167000Y-101389000D01*
X131474000Y-101349000D02*
X137126000Y-101349000D01*
X131516000Y-101309000D02*
X137084000Y-101309000D01*
X131559000Y-101269000D02*
X137041000Y-101269000D01*
X131585000Y-108319698D02*
X132385000Y-108319698D01*
X131603000Y-101229000D02*
X136997000Y-101229000D01*
X131649000Y-101189000D02*
X136951000Y-101189000D01*
X131696000Y-101149000D02*
X136904000Y-101149000D01*
X131744000Y-101109000D02*
X136856000Y-101109000D01*
X131795000Y-101069000D02*
X136805000Y-101069000D01*
X131846000Y-101029000D02*
X136754000Y-101029000D01*
X131900000Y-100989000D02*
X136700000Y-100989000D01*
X131955000Y-100949000D02*
X136645000Y-100949000D01*
X131985000Y-108719698D02*
X131985000Y-107919698D01*
X132013000Y-100909000D02*
X136587000Y-100909000D01*
X132072000Y-100869000D02*
X136528000Y-100869000D01*
X132134000Y-100829000D02*
X136466000Y-100829000D01*
X132198000Y-100789000D02*
X136402000Y-100789000D01*
X132266000Y-100749000D02*
X136334000Y-100749000D01*
X132336000Y-100709000D02*
X136264000Y-100709000D01*
X132410000Y-100669000D02*
X136190000Y-100669000D01*
X132487000Y-100629000D02*
X136113000Y-100629000D01*
X132569000Y-100589000D02*
X136031000Y-100589000D01*
X132655000Y-100549000D02*
X135945000Y-100549000D01*
X132748000Y-100509000D02*
X135852000Y-100509000D01*
X132847000Y-100469000D02*
X135753000Y-100469000D01*
X132954000Y-100429000D02*
X135646000Y-100429000D01*
X133071000Y-100389000D02*
X135529000Y-100389000D01*
X133202000Y-100349000D02*
X135398000Y-100349000D01*
X133352000Y-100309000D02*
X135248000Y-100309000D01*
X133532000Y-100269000D02*
X135068000Y-100269000D01*
X133767000Y-100229000D02*
X134833000Y-100229000D01*
X135340000Y-102029000D02*
X137692000Y-102029000D01*
X135340000Y-102069000D02*
X137718000Y-102069000D01*
X135340000Y-102109000D02*
X137744000Y-102109000D01*
X135340000Y-102149000D02*
X137769000Y-102149000D01*
X135340000Y-102189000D02*
X137793000Y-102189000D01*
X135340000Y-102229000D02*
X137817000Y-102229000D01*
X135340000Y-102269000D02*
X137840000Y-102269000D01*
X135340000Y-102309000D02*
X137862000Y-102309000D01*
X135340000Y-102349000D02*
X137884000Y-102349000D01*
X135340000Y-102389000D02*
X137906000Y-102389000D01*
X135340000Y-102429000D02*
X137927000Y-102429000D01*
X135340000Y-102469000D02*
X137947000Y-102469000D01*
X135340000Y-102509000D02*
X137966000Y-102509000D01*
X135340000Y-102549000D02*
X137986000Y-102549000D01*
X135340000Y-102589000D02*
X138004000Y-102589000D01*
X135340000Y-102629000D02*
X138022000Y-102629000D01*
X135340000Y-102669000D02*
X138040000Y-102669000D01*
X135340000Y-102709000D02*
X138057000Y-102709000D01*
X135340000Y-102749000D02*
X138074000Y-102749000D01*
X135340000Y-102789000D02*
X138090000Y-102789000D01*
X135340000Y-102829000D02*
X138105000Y-102829000D01*
X135340000Y-102869000D02*
X138121000Y-102869000D01*
X135340000Y-102909000D02*
X138135000Y-102909000D01*
X135340000Y-102949000D02*
X138150000Y-102949000D01*
X135340000Y-102989000D02*
X138163000Y-102989000D01*
X135340000Y-103029000D02*
X138177000Y-103029000D01*
X135340000Y-103069000D02*
X138189000Y-103069000D01*
X135340000Y-103109000D02*
X138202000Y-103109000D01*
X135340000Y-103149000D02*
X138214000Y-103149000D01*
X135340000Y-103189000D02*
X138225000Y-103189000D01*
X135340000Y-103229000D02*
X138236000Y-103229000D01*
X135340000Y-103269000D02*
X138247000Y-103269000D01*
X135340000Y-103309000D02*
X138257000Y-103309000D01*
X135340000Y-103349000D02*
X138267000Y-103349000D01*
X135340000Y-103389000D02*
X138276000Y-103389000D01*
X135340000Y-103429000D02*
X138285000Y-103429000D01*
X135340000Y-103469000D02*
X138294000Y-103469000D01*
X135340000Y-103509000D02*
X138302000Y-103509000D01*
X135340000Y-103549000D02*
X138310000Y-103549000D01*
X135340000Y-103589000D02*
X138317000Y-103589000D01*
X135340000Y-103630000D02*
X138324000Y-103630000D01*
X135340000Y-103670000D02*
X138330000Y-103670000D01*
X135340000Y-103710000D02*
X138337000Y-103710000D01*
X135340000Y-103750000D02*
X138342000Y-103750000D01*
X135340000Y-103790000D02*
X138348000Y-103790000D01*
X135340000Y-103830000D02*
X138352000Y-103830000D01*
X135340000Y-103870000D02*
X138357000Y-103870000D01*
X135340000Y-103910000D02*
X138361000Y-103910000D01*
X135340000Y-103950000D02*
X138365000Y-103950000D01*
X135340000Y-103990000D02*
X138368000Y-103990000D01*
X135340000Y-104030000D02*
X138371000Y-104030000D01*
X135340000Y-104070000D02*
X138374000Y-104070000D01*
X138420000Y-104310000D02*
G75*
G02*
X130180000Y-104310000I-4120000J0D01*
G01*
X130180000Y-104310000D02*
G75*
G02*
X138420000Y-104310000I4120000J0D01*
G01*
%TO.C,RESET1*%
X104595000Y-56105000D02*
X105290000Y-56105000D01*
X104595000Y-56790000D02*
X104595000Y-56105000D01*
X104595000Y-57475000D02*
X104595000Y-57350000D01*
X104595000Y-57475000D02*
X104681724Y-57475000D01*
X104595000Y-57475000D02*
X105985000Y-57475000D01*
X105898276Y-57475000D02*
X105985000Y-57475000D01*
X105985000Y-57475000D02*
X105985000Y-57350000D01*
%TO.C,Q2*%
X74010000Y-96570000D02*
X74010000Y-100170000D01*
X74021522Y-96531522D02*
G75*
G02*
X78460001Y-98370000I1838478J-1838478D01*
G01*
X78460000Y-98370000D02*
G75*
G02*
X74021522Y-100208478I-2600000J0D01*
G01*
%TO.C,17.1*%
X72165000Y-66825000D02*
X72860000Y-66825000D01*
X72165000Y-67510000D02*
X72165000Y-66825000D01*
X72165000Y-68195000D02*
X72165000Y-68070000D01*
X72165000Y-68195000D02*
X72251724Y-68195000D01*
X72165000Y-68195000D02*
X73555000Y-68195000D01*
X73468276Y-68195000D02*
X73555000Y-68195000D01*
X73555000Y-68195000D02*
X73555000Y-68070000D01*
%TO.C,R6*%
X116190000Y-66800000D02*
X116190000Y-73340000D01*
X116190000Y-73340000D02*
X118930000Y-73340000D01*
X117560000Y-66030000D02*
X117560000Y-66800000D01*
X117560000Y-74110000D02*
X117560000Y-73340000D01*
X118930000Y-66800000D02*
X116190000Y-66800000D01*
X118930000Y-73340000D02*
X118930000Y-66800000D01*
%TO.C,D2*%
X132830000Y-83260000D02*
X132830000Y-88700000D01*
X132830000Y-87680000D02*
X135770000Y-87680000D01*
X132830000Y-87800000D02*
X135770000Y-87800000D01*
X132830000Y-87920000D02*
X135770000Y-87920000D01*
X132830000Y-88700000D02*
X135770000Y-88700000D01*
X134300000Y-82240000D02*
X134300000Y-83260000D01*
X134300000Y-89720000D02*
X134300000Y-88700000D01*
X135770000Y-83260000D02*
X132830000Y-83260000D01*
X135770000Y-88700000D02*
X135770000Y-83260000D01*
%TO.C,U4*%
X121890000Y-102210000D02*
X121890000Y-105970000D01*
X121890000Y-105970000D02*
X123150000Y-105970000D01*
X128710000Y-102210000D02*
X128710000Y-105970000D01*
X128710000Y-105970000D02*
X127450000Y-105970000D01*
X128940000Y-101170000D02*
X128610000Y-100930000D01*
X128940000Y-100690000D01*
X128940000Y-101170000D01*
G36*
X128940000Y-101170000D02*
G01*
X128610000Y-100930000D01*
X128940000Y-100690000D01*
X128940000Y-101170000D01*
G37*
%TO.C,D1*%
X117330000Y-83260000D02*
X117330000Y-88700000D01*
X117330000Y-87680000D02*
X120270000Y-87680000D01*
X117330000Y-87800000D02*
X120270000Y-87800000D01*
X117330000Y-87920000D02*
X120270000Y-87920000D01*
X117330000Y-88700000D02*
X120270000Y-88700000D01*
X118800000Y-82240000D02*
X118800000Y-83260000D01*
X118800000Y-89720000D02*
X118800000Y-88700000D01*
X120270000Y-83260000D02*
X117330000Y-83260000D01*
X120270000Y-88700000D02*
X120270000Y-83260000D01*
%TO.C,R5*%
X78760000Y-38560000D02*
X79530000Y-38560000D01*
X79530000Y-37190000D02*
X79530000Y-39930000D01*
X79530000Y-39930000D02*
X86070000Y-39930000D01*
X86070000Y-37190000D02*
X79530000Y-37190000D01*
X86070000Y-39930000D02*
X86070000Y-37190000D01*
X86840000Y-38560000D02*
X86070000Y-38560000D01*
%TO.C,D-1*%
X116955000Y-51995000D02*
X117650000Y-51995000D01*
X116955000Y-52680000D02*
X116955000Y-51995000D01*
X116955000Y-53365000D02*
X116955000Y-53240000D01*
X116955000Y-53365000D02*
X117041724Y-53365000D01*
X116955000Y-53365000D02*
X118345000Y-53365000D01*
X118258276Y-53365000D02*
X118345000Y-53365000D01*
X118345000Y-53365000D02*
X118345000Y-53240000D01*
%TO.C,R8*%
X67730000Y-68660000D02*
X67730000Y-75200000D01*
X67730000Y-75200000D02*
X70470000Y-75200000D01*
X69100000Y-67890000D02*
X69100000Y-68660000D01*
X69100000Y-75970000D02*
X69100000Y-75200000D01*
X70470000Y-68660000D02*
X67730000Y-68660000D01*
X70470000Y-75200000D02*
X70470000Y-68660000D01*
%TO.C,R3*%
X128380000Y-78490000D02*
X128380000Y-88630000D01*
X128380000Y-88630000D02*
X132220000Y-88630000D01*
X130300000Y-77380000D02*
X130300000Y-78490000D01*
X130300000Y-89740000D02*
X130300000Y-88630000D01*
X132220000Y-78490000D02*
X128380000Y-78490000D01*
X132220000Y-88630000D02*
X132220000Y-78490000D01*
%TO.C,U1*%
X119200000Y-54450000D02*
X119200000Y-55450000D01*
X119200000Y-55450000D02*
X120700000Y-55450000D01*
X137600000Y-55450000D02*
X136100000Y-55450000D01*
X137600000Y-55450000D02*
X137600000Y-54450000D01*
%TO.C,R1*%
X89630000Y-53000000D02*
X90400000Y-53000000D01*
X90400000Y-51630000D02*
X90400000Y-54370000D01*
X90400000Y-54370000D02*
X96940000Y-54370000D01*
X96940000Y-51630000D02*
X90400000Y-51630000D01*
X96940000Y-54370000D02*
X96940000Y-51630000D01*
X97710000Y-53000000D02*
X96940000Y-53000000D01*
%TO.C,D3*%
X121830000Y-65340000D02*
X121830000Y-70780000D01*
X121830000Y-69760000D02*
X124770000Y-69760000D01*
X121830000Y-69880000D02*
X124770000Y-69880000D01*
X121830000Y-70000000D02*
X124770000Y-70000000D01*
X121830000Y-70780000D02*
X124770000Y-70780000D01*
X123300000Y-64320000D02*
X123300000Y-65340000D01*
X123300000Y-71800000D02*
X123300000Y-70780000D01*
X124770000Y-65340000D02*
X121830000Y-65340000D01*
X124770000Y-70780000D02*
X124770000Y-65340000D01*
D13*
%TO.C,K1*%
X78690000Y-83170000D02*
X78690000Y-92070000D01*
X78690000Y-83170000D02*
X78690000Y-102760000D01*
X78690000Y-102760000D02*
X78690000Y-93860000D01*
X78690000Y-102760000D02*
X78690000Y-93860000D01*
X78690000Y-102760000D02*
X78690000Y-93860000D01*
X93790000Y-80670000D02*
X93790000Y-83170000D01*
X93790000Y-83170000D02*
X78690000Y-83170000D01*
X97890000Y-102760000D02*
X78690000Y-102760000D01*
X97890000Y-108060000D02*
X97890000Y-102760000D01*
X97890000Y-108060000D02*
X100390000Y-108060000D01*
X97890000Y-108070000D02*
X102440000Y-108070000D01*
X105940000Y-80670000D02*
X98340000Y-80670000D01*
X110490000Y-80670000D02*
X93790000Y-80670000D01*
X110490000Y-80670000D02*
X105940000Y-80670000D01*
X110490000Y-80670000D02*
X110490000Y-108070000D01*
X110490000Y-108070000D02*
X97890000Y-108070000D01*
D14*
%TO.C,U3*%
X67780000Y-57960000D02*
X67780000Y-63260000D01*
X67780000Y-63260000D02*
X103460000Y-63260000D01*
X103460000Y-57960000D02*
X67780000Y-57960000D01*
X103460000Y-59610000D02*
X103460000Y-57960000D01*
X103460000Y-63260000D02*
X103460000Y-61610000D01*
X103460000Y-61610000D02*
G75*
G02*
X103460000Y-59610000I0J1000000D01*
G01*
%TO.C,RV3*%
X114875000Y-98090000D02*
X114875000Y-93020000D01*
X124645000Y-93020000D02*
X114875000Y-93020000D01*
X124645000Y-98090000D02*
X114875000Y-98090000D01*
X124645000Y-98090000D02*
X124645000Y-93020000D01*
%TO.C,C6*%
X71260000Y-41060000D02*
X69720000Y-41060000D01*
X71260000Y-41100000D02*
X69720000Y-41100000D01*
X71260000Y-41140000D02*
X69721000Y-41140000D01*
X71260000Y-41180000D02*
X69722000Y-41180000D01*
X71260000Y-41220000D02*
X69724000Y-41220000D01*
X71260000Y-41260000D02*
X69727000Y-41260000D01*
X71260000Y-41300000D02*
X69731000Y-41300000D01*
X71260000Y-41340000D02*
X69735000Y-41340000D01*
X71260000Y-41380000D02*
X69739000Y-41380000D01*
X71260000Y-41420000D02*
X69744000Y-41420000D01*
X71260000Y-41460000D02*
X69750000Y-41460000D01*
X71260000Y-41500000D02*
X69757000Y-41500000D01*
X71260000Y-41540000D02*
X69764000Y-41540000D01*
X71260000Y-41580000D02*
X69772000Y-41580000D01*
X71260000Y-41620000D02*
X69780000Y-41620000D01*
X71260000Y-41660000D02*
X69789000Y-41660000D01*
X71260000Y-41700000D02*
X69799000Y-41700000D01*
X71260000Y-41740000D02*
X69809000Y-41740000D01*
X71260000Y-41781000D02*
X69820000Y-41781000D01*
X71260000Y-41821000D02*
X69832000Y-41821000D01*
X71260000Y-41861000D02*
X69845000Y-41861000D01*
X71260000Y-41901000D02*
X69858000Y-41901000D01*
X71260000Y-41941000D02*
X69872000Y-41941000D01*
X71260000Y-41981000D02*
X69886000Y-41981000D01*
X71260000Y-42021000D02*
X69902000Y-42021000D01*
X71260000Y-42061000D02*
X69918000Y-42061000D01*
X71260000Y-42101000D02*
X69935000Y-42101000D01*
X71260000Y-42141000D02*
X69952000Y-42141000D01*
X71260000Y-42181000D02*
X69971000Y-42181000D01*
X71260000Y-42221000D02*
X69990000Y-42221000D01*
X71260000Y-42261000D02*
X70010000Y-42261000D01*
X71260000Y-42301000D02*
X70032000Y-42301000D01*
X71260000Y-42341000D02*
X70053000Y-42341000D01*
X71260000Y-42381000D02*
X70076000Y-42381000D01*
X71260000Y-42421000D02*
X70100000Y-42421000D01*
X71260000Y-42461000D02*
X70125000Y-42461000D01*
X71260000Y-42501000D02*
X70151000Y-42501000D01*
X71260000Y-42541000D02*
X70178000Y-42541000D01*
X71260000Y-42581000D02*
X70205000Y-42581000D01*
X71260000Y-42621000D02*
X70235000Y-42621000D01*
X71260000Y-42661000D02*
X70265000Y-42661000D01*
X71260000Y-42701000D02*
X70296000Y-42701000D01*
X71260000Y-42741000D02*
X70329000Y-42741000D01*
X71260000Y-42781000D02*
X70363000Y-42781000D01*
X71260000Y-42821000D02*
X70399000Y-42821000D01*
X71260000Y-42861000D02*
X70436000Y-42861000D01*
X71260000Y-42901000D02*
X70474000Y-42901000D01*
X71260000Y-42941000D02*
X70515000Y-42941000D01*
X71260000Y-42981000D02*
X70557000Y-42981000D01*
X71260000Y-43021000D02*
X70601000Y-43021000D01*
X71260000Y-43061000D02*
X70647000Y-43061000D01*
X72584000Y-43661000D02*
X72016000Y-43661000D01*
X72818000Y-43621000D02*
X71782000Y-43621000D01*
X72977000Y-43581000D02*
X71623000Y-43581000D01*
X73105000Y-43541000D02*
X71495000Y-43541000D01*
X73215000Y-43501000D02*
X71385000Y-43501000D01*
X73311000Y-43461000D02*
X71289000Y-43461000D01*
X73398000Y-43421000D02*
X71202000Y-43421000D01*
X73478000Y-43381000D02*
X71122000Y-43381000D01*
X73551000Y-43341000D02*
X71049000Y-43341000D01*
X73619000Y-43301000D02*
X70981000Y-43301000D01*
X73683000Y-43261000D02*
X70917000Y-43261000D01*
X73743000Y-43221000D02*
X70857000Y-43221000D01*
X73775000Y-38255225D02*
X73775000Y-38755225D01*
X73800000Y-43181000D02*
X70800000Y-43181000D01*
X73854000Y-43141000D02*
X70746000Y-43141000D01*
X73905000Y-43101000D02*
X70695000Y-43101000D01*
X73953000Y-43061000D02*
X73340000Y-43061000D01*
X73999000Y-43021000D02*
X73340000Y-43021000D01*
X74025000Y-38505225D02*
X73525000Y-38505225D01*
X74043000Y-42981000D02*
X73340000Y-42981000D01*
X74085000Y-42941000D02*
X73340000Y-42941000D01*
X74126000Y-42901000D02*
X73340000Y-42901000D01*
X74164000Y-42861000D02*
X73340000Y-42861000D01*
X74201000Y-42821000D02*
X73340000Y-42821000D01*
X74237000Y-42781000D02*
X73340000Y-42781000D01*
X74271000Y-42741000D02*
X73340000Y-42741000D01*
X74304000Y-42701000D02*
X73340000Y-42701000D01*
X74335000Y-42661000D02*
X73340000Y-42661000D01*
X74365000Y-42621000D02*
X73340000Y-42621000D01*
X74395000Y-42581000D02*
X73340000Y-42581000D01*
X74422000Y-42541000D02*
X73340000Y-42541000D01*
X74449000Y-42501000D02*
X73340000Y-42501000D01*
X74475000Y-42461000D02*
X73340000Y-42461000D01*
X74500000Y-42421000D02*
X73340000Y-42421000D01*
X74524000Y-42381000D02*
X73340000Y-42381000D01*
X74547000Y-42341000D02*
X73340000Y-42341000D01*
X74568000Y-42301000D02*
X73340000Y-42301000D01*
X74590000Y-42261000D02*
X73340000Y-42261000D01*
X74610000Y-42221000D02*
X73340000Y-42221000D01*
X74629000Y-42181000D02*
X73340000Y-42181000D01*
X74648000Y-42141000D02*
X73340000Y-42141000D01*
X74665000Y-42101000D02*
X73340000Y-42101000D01*
X74682000Y-42061000D02*
X73340000Y-42061000D01*
X74698000Y-42021000D02*
X73340000Y-42021000D01*
X74714000Y-41981000D02*
X73340000Y-41981000D01*
X74728000Y-41941000D02*
X73340000Y-41941000D01*
X74742000Y-41901000D02*
X73340000Y-41901000D01*
X74755000Y-41861000D02*
X73340000Y-41861000D01*
X74768000Y-41821000D02*
X73340000Y-41821000D01*
X74780000Y-41781000D02*
X73340000Y-41781000D01*
X74791000Y-41740000D02*
X73340000Y-41740000D01*
X74801000Y-41700000D02*
X73340000Y-41700000D01*
X74811000Y-41660000D02*
X73340000Y-41660000D01*
X74820000Y-41620000D02*
X73340000Y-41620000D01*
X74828000Y-41580000D02*
X73340000Y-41580000D01*
X74836000Y-41540000D02*
X73340000Y-41540000D01*
X74843000Y-41500000D02*
X73340000Y-41500000D01*
X74850000Y-41460000D02*
X73340000Y-41460000D01*
X74856000Y-41420000D02*
X73340000Y-41420000D01*
X74861000Y-41380000D02*
X73340000Y-41380000D01*
X74865000Y-41340000D02*
X73340000Y-41340000D01*
X74869000Y-41300000D02*
X73340000Y-41300000D01*
X74873000Y-41260000D02*
X73340000Y-41260000D01*
X74876000Y-41220000D02*
X73340000Y-41220000D01*
X74878000Y-41180000D02*
X73340000Y-41180000D01*
X74879000Y-41140000D02*
X73340000Y-41140000D01*
X74880000Y-41060000D02*
X73340000Y-41060000D01*
X74880000Y-41100000D02*
X73340000Y-41100000D01*
X74920000Y-41060000D02*
G75*
G02*
X69680000Y-41060000I-2620000J0D01*
G01*
X69680000Y-41060000D02*
G75*
G02*
X74920000Y-41060000I2620000J0D01*
G01*
%TO.C,Q1*%
X114790000Y-80720000D02*
X114790000Y-77120000D01*
X110340000Y-78920000D02*
G75*
G02*
X114778478Y-77081522I2600000J0D01*
G01*
X114778478Y-80758478D02*
G75*
G02*
X110339999Y-78920000I-1838478J1838478D01*
G01*
%TO.C,C2*%
X71240000Y-52705000D02*
X71240000Y-52460000D01*
X71240000Y-54800000D02*
X71240000Y-54555000D01*
X74880000Y-52460000D02*
X71240000Y-52460000D01*
X74880000Y-52705000D02*
X74880000Y-52460000D01*
X74880000Y-54800000D02*
X71240000Y-54800000D01*
X74880000Y-54800000D02*
X74880000Y-54555000D01*
%TO.C,C1*%
X71240000Y-50055000D02*
X71240000Y-49810000D01*
X71240000Y-52150000D02*
X71240000Y-51905000D01*
X74880000Y-49810000D02*
X71240000Y-49810000D01*
X74880000Y-50055000D02*
X74880000Y-49810000D01*
X74880000Y-52150000D02*
X71240000Y-52150000D01*
X74880000Y-52150000D02*
X74880000Y-51905000D01*
%TO.C,BZ1*%
X98139216Y-74459999D02*
G75*
G02*
X98139216Y-71460000I6400000J1499999D01*
G01*
X110769216Y-72960000D02*
G75*
G02*
X98309216Y-72960000I-6230000J0D01*
G01*
X98309216Y-72960000D02*
G75*
G02*
X110769216Y-72960000I6230000J0D01*
G01*
%TO.C,R2*%
X76170000Y-47560000D02*
X76940000Y-47560000D01*
X76940000Y-46190000D02*
X76940000Y-48930000D01*
X76940000Y-48930000D02*
X83480000Y-48930000D01*
X83480000Y-46190000D02*
X76940000Y-46190000D01*
X83480000Y-48930000D02*
X83480000Y-46190000D01*
X84250000Y-47560000D02*
X83480000Y-47560000D01*
%TO.C,R7*%
X94530000Y-69890000D02*
X94530000Y-76430000D01*
X94530000Y-76430000D02*
X97270000Y-76430000D01*
X95900000Y-69120000D02*
X95900000Y-69890000D01*
X95900000Y-77200000D02*
X95900000Y-76430000D01*
X97270000Y-69890000D02*
X94530000Y-69890000D01*
X97270000Y-76430000D02*
X97270000Y-69890000D01*
%TO.C,D4*%
X128330000Y-65340000D02*
X128330000Y-70780000D01*
X128330000Y-69760000D02*
X131270000Y-69760000D01*
X128330000Y-69880000D02*
X131270000Y-69880000D01*
X128330000Y-70000000D02*
X131270000Y-70000000D01*
X128330000Y-70780000D02*
X131270000Y-70780000D01*
X129800000Y-64320000D02*
X129800000Y-65340000D01*
X129800000Y-71800000D02*
X129800000Y-70780000D01*
X131270000Y-65340000D02*
X128330000Y-65340000D01*
X131270000Y-70780000D02*
X131270000Y-65340000D01*
%TO.C,C4*%
X111987651Y-101245000D02*
X112787651Y-101245000D01*
X112387651Y-100845000D02*
X112387651Y-101645000D01*
X116397349Y-99480000D02*
X116397349Y-107640000D01*
X116437349Y-99480000D02*
X116437349Y-107640000D01*
X116477349Y-99480000D02*
X116477349Y-107640000D01*
X116517349Y-99481000D02*
X116517349Y-107639000D01*
X116557349Y-99483000D02*
X116557349Y-107637000D01*
X116597349Y-99484000D02*
X116597349Y-107636000D01*
X116637349Y-99486000D02*
X116637349Y-102520000D01*
X116637349Y-104600000D02*
X116637349Y-107634000D01*
X116677349Y-99489000D02*
X116677349Y-102520000D01*
X116677349Y-104600000D02*
X116677349Y-107631000D01*
X116717349Y-99492000D02*
X116717349Y-102520000D01*
X116717349Y-104600000D02*
X116717349Y-107628000D01*
X116757349Y-99495000D02*
X116757349Y-102520000D01*
X116757349Y-104600000D02*
X116757349Y-107625000D01*
X116797349Y-99499000D02*
X116797349Y-102520000D01*
X116797349Y-104600000D02*
X116797349Y-107621000D01*
X116837349Y-99503000D02*
X116837349Y-102520000D01*
X116837349Y-104600000D02*
X116837349Y-107617000D01*
X116877349Y-99508000D02*
X116877349Y-102520000D01*
X116877349Y-104600000D02*
X116877349Y-107612000D01*
X116917349Y-99512000D02*
X116917349Y-102520000D01*
X116917349Y-104600000D02*
X116917349Y-107608000D01*
X116957349Y-99518000D02*
X116957349Y-102520000D01*
X116957349Y-104600000D02*
X116957349Y-107602000D01*
X116997349Y-99523000D02*
X116997349Y-102520000D01*
X116997349Y-104600000D02*
X116997349Y-107597000D01*
X117037349Y-99530000D02*
X117037349Y-102520000D01*
X117037349Y-104600000D02*
X117037349Y-107590000D01*
X117077349Y-99536000D02*
X117077349Y-102520000D01*
X117077349Y-104600000D02*
X117077349Y-107584000D01*
X117118349Y-99543000D02*
X117118349Y-102520000D01*
X117118349Y-104600000D02*
X117118349Y-107577000D01*
X117158349Y-99550000D02*
X117158349Y-102520000D01*
X117158349Y-104600000D02*
X117158349Y-107570000D01*
X117198349Y-99558000D02*
X117198349Y-102520000D01*
X117198349Y-104600000D02*
X117198349Y-107562000D01*
X117238349Y-99566000D02*
X117238349Y-102520000D01*
X117238349Y-104600000D02*
X117238349Y-107554000D01*
X117278349Y-99575000D02*
X117278349Y-102520000D01*
X117278349Y-104600000D02*
X117278349Y-107545000D01*
X117318349Y-99584000D02*
X117318349Y-102520000D01*
X117318349Y-104600000D02*
X117318349Y-107536000D01*
X117358349Y-99593000D02*
X117358349Y-102520000D01*
X117358349Y-104600000D02*
X117358349Y-107527000D01*
X117398349Y-99603000D02*
X117398349Y-102520000D01*
X117398349Y-104600000D02*
X117398349Y-107517000D01*
X117438349Y-99613000D02*
X117438349Y-102520000D01*
X117438349Y-104600000D02*
X117438349Y-107507000D01*
X117478349Y-99624000D02*
X117478349Y-102520000D01*
X117478349Y-104600000D02*
X117478349Y-107496000D01*
X117518349Y-99635000D02*
X117518349Y-102520000D01*
X117518349Y-104600000D02*
X117518349Y-107485000D01*
X117558349Y-99646000D02*
X117558349Y-102520000D01*
X117558349Y-104600000D02*
X117558349Y-107474000D01*
X117598349Y-99658000D02*
X117598349Y-102520000D01*
X117598349Y-104600000D02*
X117598349Y-107462000D01*
X117638349Y-99671000D02*
X117638349Y-102520000D01*
X117638349Y-104600000D02*
X117638349Y-107449000D01*
X117678349Y-99683000D02*
X117678349Y-102520000D01*
X117678349Y-104600000D02*
X117678349Y-107437000D01*
X117718349Y-99697000D02*
X117718349Y-102520000D01*
X117718349Y-104600000D02*
X117718349Y-107423000D01*
X117758349Y-99710000D02*
X117758349Y-102520000D01*
X117758349Y-104600000D02*
X117758349Y-107410000D01*
X117798349Y-99725000D02*
X117798349Y-102520000D01*
X117798349Y-104600000D02*
X117798349Y-107395000D01*
X117838349Y-99739000D02*
X117838349Y-102520000D01*
X117838349Y-104600000D02*
X117838349Y-107381000D01*
X117878349Y-99755000D02*
X117878349Y-102520000D01*
X117878349Y-104600000D02*
X117878349Y-107365000D01*
X117918349Y-99770000D02*
X117918349Y-102520000D01*
X117918349Y-104600000D02*
X117918349Y-107350000D01*
X117958349Y-99786000D02*
X117958349Y-102520000D01*
X117958349Y-104600000D02*
X117958349Y-107334000D01*
X117998349Y-99803000D02*
X117998349Y-102520000D01*
X117998349Y-104600000D02*
X117998349Y-107317000D01*
X118038349Y-99820000D02*
X118038349Y-102520000D01*
X118038349Y-104600000D02*
X118038349Y-107300000D01*
X118078349Y-99838000D02*
X118078349Y-102520000D01*
X118078349Y-104600000D02*
X118078349Y-107282000D01*
X118118349Y-99856000D02*
X118118349Y-102520000D01*
X118118349Y-104600000D02*
X118118349Y-107264000D01*
X118158349Y-99874000D02*
X118158349Y-102520000D01*
X118158349Y-104600000D02*
X118158349Y-107246000D01*
X118198349Y-99894000D02*
X118198349Y-102520000D01*
X118198349Y-104600000D02*
X118198349Y-107226000D01*
X118238349Y-99913000D02*
X118238349Y-102520000D01*
X118238349Y-104600000D02*
X118238349Y-107207000D01*
X118278349Y-99933000D02*
X118278349Y-102520000D01*
X118278349Y-104600000D02*
X118278349Y-107187000D01*
X118318349Y-99954000D02*
X118318349Y-102520000D01*
X118318349Y-104600000D02*
X118318349Y-107166000D01*
X118358349Y-99976000D02*
X118358349Y-102520000D01*
X118358349Y-104600000D02*
X118358349Y-107144000D01*
X118398349Y-99998000D02*
X118398349Y-102520000D01*
X118398349Y-104600000D02*
X118398349Y-107122000D01*
X118438349Y-100020000D02*
X118438349Y-102520000D01*
X118438349Y-104600000D02*
X118438349Y-107100000D01*
X118478349Y-100043000D02*
X118478349Y-102520000D01*
X118478349Y-104600000D02*
X118478349Y-107077000D01*
X118518349Y-100067000D02*
X118518349Y-102520000D01*
X118518349Y-104600000D02*
X118518349Y-107053000D01*
X118558349Y-100091000D02*
X118558349Y-102520000D01*
X118558349Y-104600000D02*
X118558349Y-107029000D01*
X118598349Y-100116000D02*
X118598349Y-102520000D01*
X118598349Y-104600000D02*
X118598349Y-107004000D01*
X118638349Y-100142000D02*
X118638349Y-102520000D01*
X118638349Y-104600000D02*
X118638349Y-106978000D01*
X118678349Y-100168000D02*
X118678349Y-102520000D01*
X118678349Y-104600000D02*
X118678349Y-106952000D01*
X118718349Y-100195000D02*
X118718349Y-106925000D01*
X118758349Y-100222000D02*
X118758349Y-106898000D01*
X118798349Y-100251000D02*
X118798349Y-106869000D01*
X118838349Y-100280000D02*
X118838349Y-106840000D01*
X118878349Y-100310000D02*
X118878349Y-106810000D01*
X118918349Y-100340000D02*
X118918349Y-106780000D01*
X118958349Y-100371000D02*
X118958349Y-106749000D01*
X118998349Y-100404000D02*
X118998349Y-106716000D01*
X119038349Y-100436000D02*
X119038349Y-106684000D01*
X119078349Y-100470000D02*
X119078349Y-106650000D01*
X119118349Y-100505000D02*
X119118349Y-106615000D01*
X119158349Y-100541000D02*
X119158349Y-106579000D01*
X119198349Y-100577000D02*
X119198349Y-106543000D01*
X119238349Y-100615000D02*
X119238349Y-106505000D01*
X119278349Y-100653000D02*
X119278349Y-106467000D01*
X119318349Y-100693000D02*
X119318349Y-106427000D01*
X119358349Y-100734000D02*
X119358349Y-106386000D01*
X119398349Y-100776000D02*
X119398349Y-106344000D01*
X119438349Y-100819000D02*
X119438349Y-106301000D01*
X119478349Y-100863000D02*
X119478349Y-106257000D01*
X119518349Y-100909000D02*
X119518349Y-106211000D01*
X119558349Y-100956000D02*
X119558349Y-106164000D01*
X119598349Y-101004000D02*
X119598349Y-106116000D01*
X119638349Y-101055000D02*
X119638349Y-106065000D01*
X119678349Y-101106000D02*
X119678349Y-106014000D01*
X119718349Y-101160000D02*
X119718349Y-105960000D01*
X119758349Y-101215000D02*
X119758349Y-105905000D01*
X119798349Y-101273000D02*
X119798349Y-105847000D01*
X119838349Y-101332000D02*
X119838349Y-105788000D01*
X119878349Y-101394000D02*
X119878349Y-105726000D01*
X119918349Y-101458000D02*
X119918349Y-105662000D01*
X119958349Y-101526000D02*
X119958349Y-105594000D01*
X119998349Y-101596000D02*
X119998349Y-105524000D01*
X120038349Y-101670000D02*
X120038349Y-105450000D01*
X120078349Y-101747000D02*
X120078349Y-105373000D01*
X120118349Y-101829000D02*
X120118349Y-105291000D01*
X120158349Y-101915000D02*
X120158349Y-105205000D01*
X120198349Y-102008000D02*
X120198349Y-105112000D01*
X120238349Y-102107000D02*
X120238349Y-105013000D01*
X120278349Y-102214000D02*
X120278349Y-104906000D01*
X120318349Y-102331000D02*
X120318349Y-104789000D01*
X120358349Y-102462000D02*
X120358349Y-104658000D01*
X120398349Y-102612000D02*
X120398349Y-104508000D01*
X120438349Y-102792000D02*
X120438349Y-104328000D01*
X120478349Y-103027000D02*
X120478349Y-104093000D01*
X120517349Y-103560000D02*
G75*
G02*
X112277349Y-103560000I-4120000J0D01*
G01*
X112277349Y-103560000D02*
G75*
G02*
X120517349Y-103560000I4120000J0D01*
G01*
%TO.C,19.1*%
X77565000Y-66745000D02*
X78260000Y-66745000D01*
X77565000Y-67430000D02*
X77565000Y-66745000D01*
X77565000Y-68115000D02*
X77565000Y-67990000D01*
X77565000Y-68115000D02*
X77651724Y-68115000D01*
X77565000Y-68115000D02*
X78955000Y-68115000D01*
X78868276Y-68115000D02*
X78955000Y-68115000D01*
X78955000Y-68115000D02*
X78955000Y-67990000D01*
%TO.C,R4*%
X120880000Y-78610000D02*
X120880000Y-88750000D01*
X120880000Y-88750000D02*
X124720000Y-88750000D01*
X122800000Y-77500000D02*
X122800000Y-78610000D01*
X122800000Y-89860000D02*
X122800000Y-88750000D01*
X124720000Y-78610000D02*
X120880000Y-78610000D01*
X124720000Y-88750000D02*
X124720000Y-78610000D01*
%TO.C,PS1*%
X98042500Y-108552500D02*
X101042500Y-108552500D01*
X98042500Y-111552500D02*
X98042500Y-108552500D01*
X98282500Y-108792500D02*
X98282500Y-134412500D01*
X98282500Y-108792500D02*
X139402500Y-108792500D01*
X98282500Y-134412500D02*
X139402500Y-134412500D01*
X139402500Y-108792500D02*
X139402500Y-134412500D01*
%TO.C,D5*%
X75140000Y-86270000D02*
X75140000Y-91710000D01*
X75140000Y-91710000D02*
X78080000Y-91710000D01*
X76610000Y-85250000D02*
X76610000Y-86270000D01*
X76610000Y-92730000D02*
X76610000Y-91710000D01*
X78080000Y-86270000D02*
X75140000Y-86270000D01*
X78080000Y-87050000D02*
X75140000Y-87050000D01*
X78080000Y-87170000D02*
X75140000Y-87170000D01*
X78080000Y-87290000D02*
X75140000Y-87290000D01*
X78080000Y-91710000D02*
X78080000Y-86270000D01*
%TO.C,U2*%
X77740000Y-75060000D02*
X77740000Y-73110000D01*
X77740000Y-75060000D02*
X77740000Y-77010000D01*
X82860000Y-75060000D02*
X82860000Y-73110000D01*
X82860000Y-75060000D02*
X82860000Y-77010000D01*
X77835000Y-77760000D02*
X77505000Y-78000000D01*
X77505000Y-77520000D01*
X77835000Y-77760000D01*
G36*
X77835000Y-77760000D02*
G01*
X77505000Y-78000000D01*
X77505000Y-77520000D01*
X77835000Y-77760000D01*
G37*
%TO.C,18.1*%
X74955000Y-66785000D02*
X75650000Y-66785000D01*
X74955000Y-67470000D02*
X74955000Y-66785000D01*
X74955000Y-68155000D02*
X74955000Y-68030000D01*
X74955000Y-68155000D02*
X75041724Y-68155000D01*
X74955000Y-68155000D02*
X76345000Y-68155000D01*
X76258276Y-68155000D02*
X76345000Y-68155000D01*
X76345000Y-68155000D02*
X76345000Y-68030000D01*
%TO.C,RV2*%
X128415000Y-98090000D02*
X128415000Y-93020000D01*
X138185000Y-93020000D02*
X128415000Y-93020000D01*
X138185000Y-98090000D02*
X128415000Y-98090000D01*
X138185000Y-98090000D02*
X138185000Y-93020000D01*
%TO.C,J1*%
D13*
X67120000Y-135560000D02*
X75710000Y-135560000D01*
X75710000Y-105560000D01*
X67120000Y-105560000D01*
X67120000Y-135560000D01*
D14*
%TO.C,C3*%
X84969888Y-70135000D02*
X84969888Y-69635000D01*
X85219888Y-69885000D02*
X84719888Y-69885000D01*
X85035113Y-68410000D02*
G75*
G02*
X79795113Y-68410000I-2620000J0D01*
G01*
X79795113Y-68410000D02*
G75*
G02*
X85035113Y-68410000I2620000J0D01*
G01*
D12*
%TO.C,RV1*%
X91550000Y-118560000D02*
X95450000Y-118560000D01*
X91550000Y-134060000D02*
X91550000Y-118560000D01*
X91550000Y-134060000D02*
X95450000Y-134060000D01*
X95450000Y-134060000D02*
X95450000Y-118560000D01*
D14*
%TO.C,F1*%
X78390000Y-109450000D02*
X78390000Y-132170000D01*
X78390000Y-109450000D02*
X81550000Y-109450000D01*
X78390000Y-132170000D02*
X81550000Y-132170000D01*
X85050000Y-109450000D02*
X88210000Y-109450000D01*
X85050000Y-132170000D02*
X88210000Y-132170000D01*
X88210000Y-109450000D02*
X88210000Y-132170000D01*
%TO.C,D+1*%
X117635000Y-54625000D02*
X118330000Y-54625000D01*
X117635000Y-55310000D02*
X117635000Y-54625000D01*
X117635000Y-55995000D02*
X117635000Y-55870000D01*
X117635000Y-55995000D02*
X117721724Y-55995000D01*
X117635000Y-55995000D02*
X119025000Y-55995000D01*
X118938276Y-55995000D02*
X119025000Y-55995000D01*
X119025000Y-55995000D02*
X119025000Y-55870000D01*
D13*
%TO.C,U5*%
X82020000Y-92350000D02*
X116520000Y-92350000D01*
X116520000Y-46350000D02*
X82020000Y-46350000D01*
X116520000Y-40350000D02*
X82020000Y-40350000D01*
X82020000Y-98350000D01*
X116520000Y-98350000D01*
X116520000Y-40350000D01*
X88020000Y-43350000D02*
G75*
G02*
X82020000Y-43350000I-3000000J0D01*
G01*
X82020000Y-43350000D02*
G75*
G02*
X88020000Y-43350000I3000000J0D01*
G01*
X88020000Y-95350000D02*
G75*
G02*
X82020000Y-95350000I-3000000J0D01*
G01*
X82020000Y-95350000D02*
G75*
G02*
X88020000Y-95350000I3000000J0D01*
G01*
X116520000Y-43350000D02*
G75*
G02*
X110520000Y-43350000I-3000000J0D01*
G01*
X110520000Y-43350000D02*
G75*
G02*
X116520000Y-43350000I3000000J0D01*
G01*
X116520000Y-95350000D02*
G75*
G02*
X110520000Y-95350000I-3000000J0D01*
G01*
X110520000Y-95350000D02*
G75*
G02*
X116520000Y-95350000I3000000J0D01*
G01*
%TD*%
M02*
