%TF.GenerationSoftware,KiCad,Pcbnew,8.0.5*%
%TF.CreationDate,2024-10-29T06:52:38-03:00*%
%TF.ProjectId,WattSync,57617474-5379-46e6-932e-6b696361645f,rev?*%
%TF.SameCoordinates,Original*%
%TF.FileFunction,Soldermask,Bot*%
%TF.FilePolarity,Negative*%
%FSLAX46Y46*%
G04 Gerber Fmt 4.6, Leading zero omitted, Abs format (unit mm)*
G04 Created by KiCad (PCBNEW 8.0.5) date 2024-10-29 06:52:38*
%MOMM*%
%LPD*%
G01*
G04 APERTURE LIST*
%ADD10C,1.500000*%
%ADD11R,1.600000X1.600000*%
%ADD12C,1.600000*%
%ADD13R,0.850000X0.850000*%
%ADD14R,1.500000X1.050000*%
%ADD15O,1.500000X1.050000*%
%ADD16O,1.600000X1.600000*%
%ADD17R,2.200000X2.200000*%
%ADD18O,2.200000X2.200000*%
%ADD19C,2.400000*%
%ADD20O,2.400000X2.400000*%
%ADD21C,3.000000*%
%ADD22C,1.700000*%
%ADD23C,1.440000*%
%ADD24R,2.000000X2.000000*%
%ADD25C,2.000000*%
%ADD26C,5.000000*%
%ADD27R,1.700000X2.000000*%
%ADD28O,1.700000X2.000000*%
%ADD29C,8.000000*%
%ADD30C,1.800000*%
%ADD31C,2.700000*%
G04 APERTURE END LIST*
D10*
%TO.C,Y1*%
X83840000Y-52150000D03*
X78960000Y-52150000D03*
%TD*%
D11*
%TO.C,C5*%
X134300000Y-105560000D03*
D12*
X134300000Y-103060000D03*
%TD*%
D13*
%TO.C,RESET1*%
X105290000Y-56790000D03*
%TD*%
D14*
%TO.C,Q2*%
X75860000Y-97100000D03*
D15*
X75860000Y-98370000D03*
X75860000Y-99640000D03*
%TD*%
D13*
%TO.C,17.1*%
X72860000Y-67510000D03*
%TD*%
D12*
%TO.C,R6*%
X117560000Y-75150000D03*
D16*
X117560000Y-64990000D03*
%TD*%
D17*
%TO.C,D2*%
X134300000Y-91060000D03*
D18*
X134300000Y-80900000D03*
%TD*%
D17*
%TO.C,D1*%
X118800000Y-91060000D03*
D18*
X118800000Y-80900000D03*
%TD*%
D12*
%TO.C,R5*%
X77720000Y-38560000D03*
D16*
X87880000Y-38560000D03*
%TD*%
D13*
%TO.C,D-1*%
X117650000Y-52680000D03*
%TD*%
D12*
%TO.C,R8*%
X69100000Y-66850000D03*
D16*
X69100000Y-77010000D03*
%TD*%
D19*
%TO.C,R3*%
X130300000Y-75940000D03*
D20*
X130300000Y-91180000D03*
%TD*%
D12*
%TO.C,R1*%
X88590000Y-53000000D03*
D16*
X98750000Y-53000000D03*
%TD*%
D17*
%TO.C,D3*%
X123300000Y-73140000D03*
D18*
X123300000Y-62980000D03*
%TD*%
D21*
%TO.C,K1*%
X82360000Y-93830000D03*
X100390000Y-102760000D03*
X97300000Y-85510000D03*
D22*
X84710000Y-89120000D03*
X84710000Y-98990000D03*
%TD*%
D11*
%TO.C,U3*%
X102130000Y-56800000D03*
D16*
X99590000Y-56800000D03*
X97050000Y-56800000D03*
X94510000Y-56800000D03*
X91970000Y-56800000D03*
X89430000Y-56800000D03*
X86890000Y-56800000D03*
X84350000Y-56800000D03*
X81810000Y-56800000D03*
X79270000Y-56800000D03*
X76730000Y-56800000D03*
X74190000Y-56800000D03*
X71650000Y-56800000D03*
X69110000Y-56800000D03*
X69110000Y-64420000D03*
X71650000Y-64420000D03*
X74190000Y-64420000D03*
X76730000Y-64420000D03*
X79270000Y-64420000D03*
X81810000Y-64420000D03*
X84350000Y-64420000D03*
X86890000Y-64420000D03*
X89430000Y-64420000D03*
X91970000Y-64420000D03*
X94510000Y-64420000D03*
X97050000Y-64420000D03*
X99590000Y-64420000D03*
X102130000Y-64420000D03*
%TD*%
D23*
%TO.C,RV3*%
X117220000Y-95560000D03*
X119760000Y-95560000D03*
X122300000Y-95560000D03*
%TD*%
D11*
%TO.C,C6*%
X72300000Y-40060000D03*
D12*
X72300000Y-42060000D03*
%TD*%
D14*
%TO.C,Q1*%
X112940000Y-80190000D03*
D15*
X112940000Y-78920000D03*
X112940000Y-77650000D03*
%TD*%
D12*
%TO.C,C2*%
X74310000Y-53630000D03*
X71810000Y-53630000D03*
%TD*%
%TO.C,C1*%
X74310000Y-50980000D03*
X71810000Y-50980000D03*
%TD*%
D24*
%TO.C,BZ1*%
X102039216Y-72960000D03*
D25*
X107039216Y-72960000D03*
%TD*%
D12*
%TO.C,R2*%
X75130000Y-47560000D03*
D16*
X85290000Y-47560000D03*
%TD*%
D12*
%TO.C,R7*%
X95900000Y-78240000D03*
D16*
X95900000Y-68080000D03*
%TD*%
D17*
%TO.C,D4*%
X129800000Y-73140000D03*
D18*
X129800000Y-62980000D03*
%TD*%
D26*
%TO.C,*%
X69800000Y-46560000D03*
%TD*%
D11*
%TO.C,C4*%
X115147349Y-103560000D03*
D12*
X117647349Y-103560000D03*
%TD*%
D13*
%TO.C,19.1*%
X78260000Y-67430000D03*
%TD*%
D19*
%TO.C,R4*%
X122800000Y-76060000D03*
D20*
X122800000Y-91300000D03*
%TD*%
D27*
%TO.C,PS1*%
X102042500Y-118602500D03*
D28*
X102042500Y-124602500D03*
X135642500Y-112602500D03*
X135642500Y-130602500D03*
%TD*%
D26*
%TO.C,*%
X137440000Y-59590000D03*
%TD*%
D17*
%TO.C,D5*%
X76610000Y-83910000D03*
D18*
X76610000Y-94070000D03*
%TD*%
D13*
%TO.C,18.1*%
X75650000Y-67470000D03*
%TD*%
D26*
%TO.C,*%
X93560000Y-107100000D03*
%TD*%
D23*
%TO.C,RV2*%
X130760000Y-95560000D03*
X133300000Y-95560000D03*
X135840000Y-95560000D03*
%TD*%
D29*
%TO.C,J1*%
X71800000Y-129560000D03*
X71800000Y-119560000D03*
X71800000Y-109560000D03*
%TD*%
D11*
%TO.C,C3*%
X83665113Y-68410000D03*
D12*
X81165113Y-68410000D03*
%TD*%
D30*
%TO.C,RV1*%
X92800000Y-130060000D03*
X94200000Y-122560000D03*
%TD*%
D31*
%TO.C,F1*%
X83300000Y-120810000D03*
D21*
X83300000Y-109560000D03*
X83300000Y-132060000D03*
%TD*%
D26*
%TO.C,*%
X137440000Y-59590000D03*
%TD*%
D13*
%TO.C,D+1*%
X118330000Y-55310000D03*
%TD*%
D10*
%TO.C,U5*%
X108160000Y-42850000D03*
X105620000Y-42850000D03*
X103080000Y-42850000D03*
X100540000Y-42850000D03*
X98000000Y-42850000D03*
X95460000Y-42850000D03*
X92920000Y-42850000D03*
X90380000Y-42850000D03*
%TD*%
M02*
